<svg width="48" height="48" viewBox="0 0 48 48" fill="none" xmlns="http://www.w3.org/2000/svg"><path d="M30.1 11.5l.396.004c7.655.191 13.808 5.983 14 13.152L44.5 25l-.008.44c-.148 4.33-2.474 8.15-5.984 10.521a14.802 14.802 0 0 1-5.15 2.188c-3.345.404-6.656.35-10.184.35H13.143l-.482-.012c-4.781-.22-8.644-3.71-9.113-8.118l-.035-.444-.013-.469c0-4.83 4.045-8.788 9.146-9.031l.497-.012c.697 0 1.377.07 2.032.202l1.175.237.49-1.092c2.177-4.848 7.3-8.256 13.26-8.259z" stroke="#BDC1C6" stroke-width="3"/></svg>