<svg width="48" height="48" viewBox="0 0 48 48" fill="none" xmlns="http://www.w3.org/2000/svg"><path d="M30.514 2.005C39.02 2.208 46 8.762 46 16.999l-.008.473-.022.454c-.302 4.672-2.868 8.742-6.623 11.277l-.322.211c-.481.308-.982.59-1.499.849a5.189 5.189 0 0 0 .257-3.628c3.08-2.128 5.075-5.477 5.21-9.228l.006-.436c-.016-6.409-5.492-11.788-12.534-11.967L30.093 5c-5.387.006-9.96 3.086-11.885 7.373l-.981 2.186-2.35-.474a8.724 8.724 0 0 0-1.29-.161l-.444-.012c-4.592 0-8.13 3.466-8.143 7.522l.012.424c.217 3.88 3.686 7.139 8.13 7.14h6.936c.088.504.251 1 .494 1.47v.002l.78 1.527h-8.21c-5.692 0-10.514-4.083-11.085-9.468l-.042-.524-.015-.55c0-5.906 5.077-10.543 11.143-10.543.797 0 1.576.08 2.329.232C17.9 5.735 23.577 2 30.107 2l.407.005z" fill="#BDC1C6"/><path d="M21.979 35h-7.974c-.715 0-1.339.38-1.711 1.024a2.151 2.151 0 0 0-.05 2.079l3.986 7.789c.352.686 1.027 1.108 1.772 1.108.745 0 1.42-.422 1.772-1.108l3.986-7.79a2.178 2.178 0 0 0-.05-2.078C23.338 35.38 22.693 35 21.978 35zm10.999-9h-7.973c-.714 0-1.339.38-1.711 1.024a2.151 2.151 0 0 0-.05 2.079l3.986 7.789c.352.686 1.027 1.108 1.772 1.108.745 0 1.42-.422 1.772-1.108l3.986-7.79a2.178 2.178 0 0 0-.05-2.078C34.338 26.38 33.693 26 32.978 26zm11 9h-7.973c-.715 0-1.339.38-1.711 1.024a2.151 2.151 0 0 0-.05 2.079l3.986 7.789c.353.686 1.027 1.108 1.772 1.108.745 0 1.42-.422 1.772-1.108l3.986-7.79a2.178 2.178 0 0 0-.05-2.078C45.338 35.38 44.693 35 43.978 35z" fill="#E8EAED"/></svg>