<svg width="48" height="48" viewBox="0 0 48 48" fill="none" xmlns="http://www.w3.org/2000/svg"><path d="M18.58 4.033a8.246 8.246 0 0 1 10.844 0 8.247 8.247 0 0 0 4.863 2.014 8.246 8.246 0 0 1 7.667 7.668 8.246 8.246 0 0 0 2.015 4.862 8.246 8.246 0 0 1 1.61 8.031 14.018 14.018 0 0 0-10.064-4.604h-.038L35.2 22h-.036c-4.844 0-9.184 2.448-11.666 6.24C17.862 28.292 13 32.75 13 38.618v.04l.012.463.002.04c.05.972.239 1.902.538 2.775a8.243 8.243 0 0 1-7.502-7.652 8.246 8.246 0 0 0-2.015-4.862 8.247 8.247 0 0 1 0-10.845 8.246 8.246 0 0 0 2.015-4.862 8.246 8.246 0 0 1 7.667-7.668 8.247 8.247 0 0 0 4.863-2.014z" fill="#FCBD00"/><path d="M18.58 4.033a8.246 8.246 0 0 1 10.844 0 8.249 8.249 0 0 0 4.863 2.015 8.246 8.246 0 0 1 7.667 7.667 8.248 8.248 0 0 0 2.015 4.863 8.244 8.244 0 0 1 1.608 8.03 13.84 13.84 0 0 0-2.59-2.24 5.236 5.236 0 0 0-1.28-3.817 11.247 11.247 0 0 1-2.746-6.632 5.246 5.246 0 0 0-4.878-4.878 11.248 11.248 0 0 1-6.632-2.747 5.245 5.245 0 0 0-6.898 0 11.248 11.248 0 0 1-6.632 2.747 5.246 5.246 0 0 0-4.878 4.878 11.248 11.248 0 0 1-2.747 6.632 5.246 5.246 0 0 0 0 6.898 11.248 11.248 0 0 1 2.747 6.632 5.245 5.245 0 0 0 3.96 4.732l.009.308.002.04c.05.972.238 1.902.537 2.776a8.244 8.244 0 0 1-7.467-7.269l-.034-.383a8.248 8.248 0 0 0-2.015-4.863 8.246 8.246 0 0 1-.246-10.548l.246-.296a8.247 8.247 0 0 0 1.984-4.527l.03-.336a8.246 8.246 0 0 1 7.285-7.633l.383-.034A8.248 8.248 0 0 0 18.32 4.25l.259-.217z" fill="#FCBD00"/><path d="M35.404 26.502c5.042.124 9.096 4.1 9.096 8.997l-.005.283c-.092 2.895-1.605 5.446-3.886 7.027a9.464 9.464 0 0 1-3.311 1.45c-2.235.276-4.45.24-6.862.239h-6.838c-3.252 0-5.918-2.46-6.09-5.557l-.008-.323c0-3.25 2.733-5.88 6.098-5.88.44 0 .87.045 1.283.131l1.191.247.488-1.114c1.414-3.234 4.738-5.5 8.597-5.502l.247.002z" stroke="#BDC1C6" stroke-width="3"/></svg>