<svg width="48" height="48" viewBox="0 0 48 48" fill="none" xmlns="http://www.w3.org/2000/svg"><g clip-path="url(#a)"><path d="M30.514 2.005C39.02 2.208 46 8.762 46 16.999l-.008.473-.022.454c-.242 3.735-1.932 7.084-4.518 9.573l-2.122-2.121c2.188-2.084 3.552-4.892 3.662-7.97L43 16.97c-.016-6.409-5.492-11.788-12.534-11.967L30.093 5c-5.387.006-9.96 3.086-11.885 7.373l-.981 2.186-2.35-.474a8.724 8.724 0 0 0-1.29-.161l-.444-.012c-4.592 0-8.13 3.466-8.143 7.522l.01.41-2.567 2.567a9.994 9.994 0 0 1-.386-1.882l-.042-.524-.015-.55c0-5.906 5.077-10.543 11.143-10.543.797 0 1.576.08 2.329.232C17.9 5.735 23.577 2 30.107 2l.407.005z" fill="#BDC1C6"/><path fill="#E8EAED" d="M9.523 21.575l5.44 5.44-5.44 5.439-5.44-5.44zm13.602 13.597l5.44 5.439-5.44 5.44-5.44-5.44zm5.439-16.317l2.72 2.72-16.32 16.318-2.72-2.72zm6.801 6.799l2.72 2.72-8.16 8.158-2.72-2.72z"/></g><defs><clipPath id="a"><path fill="#fff" d="M0 0h48v48H0z"/></clipPath></defs></svg>