<svg width="48" height="48" viewBox="0 0 48 48" fill="none" xmlns="http://www.w3.org/2000/svg"><g clip-path="url(#a)"><path d="M30.514 2.005c8.06.192 14.75 6.088 15.428 13.715h-3.017c-.671-5.843-5.881-10.549-12.46-10.716L30.093 5c-5.387.006-9.96 3.086-11.885 7.373l-.981 2.186-2.35-.474a8.724 8.724 0 0 0-1.29-.161l-.444-.012c-4.592 0-8.13 3.466-8.143 7.522l.006.226-1.894 1.831a8.572 8.572 0 0 0-.71.779 9.996 9.996 0 0 1-.345-1.74l-.042-.525-.015-.55c0-5.906 5.077-10.543 11.143-10.543.797 0 1.576.08 2.329.232C17.9 5.735 23.577 2 30.107 2l.407.005z" fill="#BDC1C6"/><path d="M21.796 36.153l.035.033a5.479 5.479 0 0 1 0 7.898c-2.241 2.18-5.875 2.18-8.116 0a5.479 5.479 0 0 1 0-7.898l4.058-3.948 4.023 3.915zm-8.609-10.594l.036.035a5.479 5.479 0 0 1 0 7.897c-2.242 2.18-5.875 2.18-8.116 0a5.479 5.479 0 0 1 0-7.897l4.057-3.949 4.023 3.914z" fill="#619DFF"/><path fill-rule="evenodd" clip-rule="evenodd" d="M33.06 18.72l-6.667 13.756h6l-.744 12.243 14.744-16.037-5.335-.022 5.335-9.94H33.059z" fill="#FCBD00"/></g><defs><clipPath id="a"><path fill="#fff" d="M0 0h48v48H0z"/></clipPath></defs></svg>