<svg width="48" height="48" viewBox="0 0 48 48" fill="none" xmlns="http://www.w3.org/2000/svg"><path d="M12.049 29.535a5.881 5.881 0 0 1 5.875 5.876 5.88 5.88 0 0 1-5.875 5.875h-1.53v-3.058h1.53a2.824 2.824 0 0 0 2.817-2.817 2.823 2.823 0 0 0-2.817-2.816H4v-3.06h8.049zm26.075-7.064A5.882 5.882 0 0 1 44 28.347a5.881 5.881 0 0 1-5.876 5.875h-1.529v-3.058h1.53a2.824 2.824 0 0 0 2.816-2.817 2.823 2.823 0 0 0-2.817-2.816H4v-3.06h34.124zM21.827 6.716a5.88 5.88 0 0 1 5.875 5.875 5.88 5.88 0 0 1-5.875 5.876H4v-3.059h17.827a2.823 2.823 0 0 0 2.817-2.816 2.823 2.823 0 0 0-2.817-2.817h-1.529v-3.06h1.53z" fill="#BDC1C6"/></svg>