<svg width="48" height="48" viewBox="0 0 48 48" fill="none" xmlns="http://www.w3.org/2000/svg">
<path fill-rule="evenodd" clip-rule="evenodd" d="M1 30C1 29.7239 1.22386 29.5 1.5 29.5H22.5C22.7761 29.5 23 29.7239 23 30C23 30.2761 22.7761 30.5 22.5 30.5H1.5C1.22386 30.5 1 30.2761 1 30Z" fill="#E3E3E3"/>
<path fill-rule="evenodd" clip-rule="evenodd" d="M1 37.5C1 37.2239 1.22386 37 1.5 37H17.6265C20.3881 37 22.6265 39.2384 22.6265 42C22.6265 44.7616 20.3881 47 17.6265 47C17.3504 47 17.1265 46.7761 17.1265 46.5C17.1265 46.2239 17.3504 46 17.6265 46C19.8359 46 21.6265 44.2094 21.6265 42C21.6265 39.7906 19.8359 38 17.6265 38H1.5C1.22386 38 1 37.7761 1 37.5Z" fill="#E3E3E3"/>
<path fill-rule="evenodd" clip-rule="evenodd" d="M38.8203 24.536L36.3749 26.9814L33.9295 24.536L33.2224 25.2431L35.8749 27.8956V32.342C35.2906 32.4264 34.7534 32.6564 34.3012 32.9941L31.157 29.8498V26.0987H30.157V29.557H26.6986V30.557H30.45L33.5941 33.7011C33.2564 34.1533 33.0263 34.6905 32.9419 35.2749H28.4956L25.8431 32.6224L25.136 33.3295L27.5814 35.7749L25.136 38.2203L25.8431 38.9274L28.4956 36.2749H32.9419C33.0263 36.8593 33.2563 37.3966 33.5941 37.8488L30.4499 40.9929H26.6986V41.9929H30.157V45.4513H31.157V41.7001L34.3012 38.5559C34.7533 38.8936 35.2905 39.1236 35.8749 39.208V43.6543L33.2224 46.3068L33.9295 47.014L36.2493 44.6941H36.5005L38.8203 47.014L39.5274 46.3068L36.8749 43.6543V39.208C37.4593 39.1236 37.9965 38.8936 38.4486 38.5559L41.5928 41.7001V45.4513H42.5928V41.9929H46.0512V40.9929H42.2999L39.1558 37.8488C39.4935 37.3966 39.7235 36.8593 39.8079 36.2749H44.2542L46.9067 38.9274L47.6138 38.2203L45.1684 35.7749L47.6138 33.3295L46.9067 32.6224L44.2542 35.2749H39.8079C39.7235 34.6906 39.4935 34.1534 39.1558 33.7013L42.3001 30.557L46.0512 30.557V29.557H42.5928V26.0987H41.5928V29.8501L38.4487 32.9942C37.9966 32.6564 37.4593 32.4264 36.8749 32.342V27.8956L39.5274 25.2431L38.8203 24.536ZM36.3673 33.3063H36.3825C37.7425 33.3104 38.8437 34.4141 38.8437 35.775C38.8437 36.4536 38.5698 37.0683 38.1266 37.5146L38.1145 37.5267C37.6714 37.9668 37.0623 38.2398 36.3894 38.2437H36.3604C35.0149 38.2359 33.9245 37.1519 33.9064 35.809V35.741C33.9245 34.3958 35.0187 33.3103 36.3673 33.3063Z" fill="#7CACF8"/>
<path d="M19.6875 24C26.2114 24 31.5 18.6274 31.5 12C31.5 5.37258 26.2114 0 19.6875 0C13.1636 0 7.875 5.37258 7.875 12C7.875 18.6274 13.1636 24 19.6875 24Z" fill="#F1F3F4"/>
<path d="M19.5 24C26.1274 24 31.5 18.6274 31.5 12C31.5 5.37258 26.1274 0 19.5 0C12.8726 0 7.5 5.37258 7.5 12C7.5 18.6274 12.8726 24 19.5 24Z" fill="url(#paint0_linear_78_6620)"/>
<path fill-rule="evenodd" clip-rule="evenodd" d="M19.5 24C19.5 18.4771 15.1348 14 9.75 14C4.36522 14 0 18.4771 0 24C0.0143904 23.9773 19.5051 23.9845 19.5 24Z" fill="#F0F4F9"/>
<path fill-rule="evenodd" clip-rule="evenodd" d="M42.5 13.6428V22.3571H41.5V13.6428H42.5Z" fill="#7CACF8"/>
<path fill-rule="evenodd" clip-rule="evenodd" d="M38.4766 15.3883L46.0234 19.7455L45.5234 20.6115L37.9766 16.2544L38.4766 15.3883Z" fill="#7CACF8"/>
<path fill-rule="evenodd" clip-rule="evenodd" d="M46.0234 16.2544L38.4766 20.6115L37.9766 19.7455L45.5234 15.3883L46.0234 16.2544Z" fill="#7CACF8"/>
<defs>
<linearGradient id="paint0_linear_78_6620" x1="7.5" y1="0" x2="31.0865" y2="23.5865" gradientUnits="userSpaceOnUse">
<stop stop-color="#F1F3F4"/>
<stop offset="1" stop-color="#DADCE0"/>
</linearGradient>
</defs>
</svg>
