<svg width="48" height="48" viewBox="0 0 48 48" fill="none" xmlns="http://www.w3.org/2000/svg">
<path d="M12.75 39.735C13.5784 39.735 14.25 39.0634 14.25 38.235C14.25 37.4066 13.5784 36.735 12.75 36.735C11.9216 36.735 11.25 37.4066 11.25 38.235C11.25 39.0634 11.9216 39.735 12.75 39.735Z" fill="#FCBD00"/>
<path d="M6.75 39H2.25C2.05109 39 1.86032 38.921 1.71967 38.7803C1.57902 38.6397 1.5 38.4489 1.5 38.25C1.5 38.0511 1.57902 37.8603 1.71967 37.7197C1.86032 37.579 2.05109 37.5 2.25 37.5H6.75C6.94891 37.5 7.13968 37.579 7.28033 37.7197C7.42098 37.8603 7.5 38.0511 7.5 38.25C7.5 38.4489 7.42098 38.6397 7.28033 38.7803C7.13968 38.921 6.94891 39 6.75 39Z" fill="#E3E3E3"/>
<path d="M45.75 39H18.75C18.5511 39 18.3603 38.921 18.2197 38.7803C18.079 38.6397 18 38.4489 18 38.25C18 38.0511 18.079 37.8603 18.2197 37.7197C18.3603 37.579 18.5511 37.5 18.75 37.5H45.75C45.9489 37.5 46.1397 37.579 46.2803 37.7197C46.421 37.8603 46.5 38.0511 46.5 38.25C46.5 38.4489 46.421 38.6397 46.2803 38.7803C46.1397 38.921 45.9489 39 45.75 39Z" fill="#E3E3E3"/>
<path d="M35.25 32.22C36.0784 32.22 36.75 31.5484 36.75 30.72C36.75 29.8916 36.0784 29.22 35.25 29.22C34.4216 29.22 33.75 29.8916 33.75 30.72C33.75 31.5484 34.4216 32.22 35.25 32.22Z" fill="#FCBD00"/>
<path d="M45.75 31.5H41.25C41.0511 31.5 40.8603 31.421 40.7197 31.2803C40.579 31.1397 40.5 30.9489 40.5 30.75C40.5 30.5511 40.579 30.3603 40.7197 30.2197C40.8603 30.079 41.0511 30 41.25 30H45.75C45.9489 30 46.1397 30.079 46.2803 30.2197C46.421 30.3603 46.5 30.5511 46.5 30.75C46.5 30.9489 46.421 31.1397 46.2803 31.2803C46.1397 31.421 45.9489 31.5 45.75 31.5Z" fill="#E3E3E3"/>
<path d="M29.25 31.5H2.25C2.05109 31.5 1.86032 31.421 1.71967 31.2803C1.57902 31.1397 1.5 30.9489 1.5 30.75C1.5 30.5511 1.57902 30.3603 1.71967 30.2197C1.86032 30.079 2.05109 30 2.25 30H29.25C29.4489 30 29.6397 30.079 29.7803 30.2197C29.921 30.3603 30 30.5511 30 30.75C30 30.9489 29.921 31.1397 29.7803 31.2803C29.6397 31.421 29.4489 31.5 29.25 31.5Z" fill="#E3E3E3"/>
<path d="M3 24.75C3.82843 24.75 4.5 24.0784 4.5 23.25C4.5 22.4216 3.82843 21.75 3 21.75C2.17157 21.75 1.5 22.4216 1.5 23.25C1.5 24.0784 2.17157 24.75 3 24.75Z" fill="#FCBD00"/>
<path d="M20.25 24.75C21.0784 24.75 21.75 24.0784 21.75 23.25C21.75 22.4216 21.0784 21.75 20.25 21.75C19.4216 21.75 18.75 22.4216 18.75 23.25C18.75 24.0784 19.4216 24.75 20.25 24.75Z" fill="#FCBD00"/>
<path d="M45.75 24H26.25C26.0511 24 25.8603 23.921 25.7197 23.7803C25.579 23.6397 25.5 23.4489 25.5 23.25C25.5038 23.0523 25.5841 22.8637 25.7239 22.7239C25.8637 22.5841 26.0523 22.5038 26.25 22.5H45.75C45.9489 22.5 46.1397 22.579 46.2803 22.7197C46.421 22.8603 46.5 23.0511 46.5 23.25C46.5 23.4489 46.421 23.6397 46.2803 23.7803C46.1397 23.921 45.9489 24 45.75 24Z" fill="#E3E3E3"/>
<path d="M14.25 24H9C8.80109 24 8.61032 23.921 8.46967 23.7803C8.32902 23.6397 8.25 23.4489 8.25 23.25C8.25 23.0511 8.32902 22.8603 8.46967 22.7197C8.61032 22.579 8.80109 22.5 9 22.5H14.25C14.4489 22.5 14.6397 22.579 14.7803 22.7197C14.921 22.8603 15 23.0511 15 23.25C15 23.4489 14.921 23.6397 14.7803 23.7803C14.6397 23.921 14.4489 24 14.25 24Z" fill="#E3E3E3"/>
<path d="M45 17.25C45.8284 17.25 46.5 16.5784 46.5 15.75C46.5 14.9216 45.8284 14.25 45 14.25C44.1716 14.25 43.5 14.9216 43.5 15.75C43.5 16.5784 44.1716 17.25 45 17.25Z" fill="#FCBD00"/>
<path d="M38.9986 16.5H2.23364C2.03473 16.5 1.84396 16.421 1.70331 16.2803C1.56266 16.1397 1.48364 15.9489 1.48364 15.75C1.48364 15.5511 1.56266 15.3603 1.70331 15.2197C1.84396 15.079 2.03473 15 2.23364 15H38.9986C39.1976 15 39.3883 15.079 39.529 15.2197C39.6696 15.3603 39.7486 15.5511 39.7486 15.75C39.7486 15.9489 39.6696 16.1397 39.529 16.2803C39.3883 16.421 39.1976 16.5 38.9986 16.5Z" fill="#E3E3E3"/>
<path d="M27.75 9.75C28.5784 9.75 29.25 9.07843 29.25 8.25C29.25 7.42157 28.5784 6.75 27.75 6.75C26.9216 6.75 26.25 7.42157 26.25 8.25C26.25 9.07843 26.9216 9.75 27.75 9.75Z" fill="#FCBD00"/>
<path d="M21.75 9H2.25C2.05109 9 1.86032 8.92098 1.71967 8.78033C1.57902 8.63968 1.5 8.44891 1.5 8.25C1.5 8.05109 1.57902 7.86032 1.71967 7.71967C1.86032 7.57902 2.05109 7.5 2.25 7.5H21.75C21.9489 7.5 22.1397 7.57902 22.2803 7.71967C22.421 7.86032 22.5 8.05109 22.5 8.25C22.5 8.44891 22.421 8.63968 22.2803 8.78033C22.1397 8.92098 21.9489 9 21.75 9Z" fill="#E3E3E3"/>
<path d="M45.75 9H33.75C33.5511 9 33.3603 8.92098 33.2197 8.78033C33.079 8.63968 33 8.44891 33 8.25C33 8.05109 33.079 7.86032 33.2197 7.71967C33.3603 7.57902 33.5511 7.5 33.75 7.5H45.75C45.9489 7.5 46.1397 7.57902 46.2803 7.71967C46.421 7.86032 46.5 8.05109 46.5 8.25C46.5 8.44891 46.421 8.63968 46.2803 8.78033C46.1397 8.92098 45.9489 9 45.75 9Z" fill="#E3E3E3"/>
</svg>
