<svg width="48" height="48" viewBox="0 0 48 48" fill="none" xmlns="http://www.w3.org/2000/svg">
<path d="M30 36C39.9411 36 48 27.9411 48 18C48 8.05887 39.9411 0 30 0C20.0589 0 12 8.05887 12 18C12 27.9411 20.0589 36 30 36Z" fill="#F1F3F4"/>
<path d="M30 36C39.9411 36 48 27.9411 48 18C48 8.05887 39.9411 0 30 0C20.0589 0 12 8.05887 12 18C12 27.9411 20.0589 36 30 36Z" fill="url(#paint0_linear_78_6586)"/>
<path fill-rule="evenodd" clip-rule="evenodd" d="M30 36C30 27.7157 23.2843 21 15 21C6.71572 21 0 27.7157 0 36C0.0221391 35.966 30.0078 35.9769 30 36Z" fill="#F0F4F9"/>
<path fill-rule="evenodd" clip-rule="evenodd" d="M36.0001 19.0296L36 19.0294L27.5147 27.5147C22.8284 32.201 22.8284 39.799 27.5147 44.4853C32.201 49.1716 39.799 49.1716 44.4853 44.4853C49.0082 39.9623 49.1659 32.7271 44.9582 28.0151C41.7281 32.8309 36.2342 36.0001 30.0001 36.0001C29.9236 36.0001 29.8473 35.9996 29.771 35.9987L29.9767 35.999C29.75 35.9936 27.8938 35.9889 25.2061 35.9854L24.2684 35.9843L24.0038 35.984C24.0045 32.9175 25.1761 29.8536 27.5148 27.5148L36.0001 19.0296Z" fill="#4285F4"/>
<path fill-rule="evenodd" clip-rule="evenodd" d="M36 19.0295L44.4853 27.5148C44.6485 27.6781 44.8061 27.8449 44.9581 28.0151C41.728 32.8309 36.2341 36.0001 30 36.0001C29.9235 36.0001 29.8471 35.9996 29.7709 35.9987L29.9766 35.999C29.7499 35.9936 27.8937 35.9889 25.206 35.9854L24.2682 35.9843C24.1807 35.9842 24.0925 35.9841 24.0037 35.984C24.0044 32.9175 25.1759 29.8536 27.5147 27.5148L36 19.0295Z" fill="#3879E5"/>
<defs>
<linearGradient id="paint0_linear_78_6586" x1="12" y1="0" x2="47.3798" y2="35.3798" gradientUnits="userSpaceOnUse">
<stop stop-color="#F1F3F4"/>
<stop offset="1" stop-color="#DADCE0"/>
</linearGradient>
</defs>
</svg>
