<svg width="48" height="48" viewBox="0 0 48 48" fill="none" xmlns="http://www.w3.org/2000/svg">
<path fill-rule="evenodd" clip-rule="evenodd" d="M1 36C1 35.7239 1.22386 35.5 1.5 35.5H31.5C31.7761 35.5 32 35.7239 32 36C32 36.2761 31.7761 36.5 31.5 36.5H1.5C1.22386 36.5 1 36.2761 1 36Z" fill="#E3E3E3"/>
<path fill-rule="evenodd" clip-rule="evenodd" d="M37 36C37 35.7239 37.2239 35.5 37.5 35.5H46.5C46.7761 35.5 47 35.7239 47 36C47 36.2761 46.7761 36.5 46.5 36.5H37.5C37.2239 36.5 37 36.2761 37 36Z" fill="#E3E3E3"/>
<path fill-rule="evenodd" clip-rule="evenodd" d="M1 30C1 29.7239 1.22386 29.5 1.5 29.5H10.5C10.7761 29.5 11 29.7239 11 30C11 30.2761 10.7761 30.5 10.5 30.5H1.5C1.22386 30.5 1 30.2761 1 30Z" fill="#E3E3E3"/>
<path fill-rule="evenodd" clip-rule="evenodd" d="M1 42C1 41.7239 1.22386 41.5 1.5 41.5H10.5C10.7761 41.5 11 41.7239 11 42C11 42.2761 10.7761 42.5 10.5 42.5H1.5C1.22386 42.5 1 42.2761 1 42Z" fill="#E3E3E3"/>
<path fill-rule="evenodd" clip-rule="evenodd" d="M16 30C16 29.7239 16.2239 29.5 16.5 29.5H46.5C46.7761 29.5 47 29.7239 47 30C47 30.2761 46.7761 30.5 46.5 30.5H16.5C16.2239 30.5 16 30.2761 16 30Z" fill="#E3E3E3"/>
<path fill-rule="evenodd" clip-rule="evenodd" d="M16 42C16 41.7239 16.2239 41.5 16.5 41.5H46.5C46.7761 41.5 47 41.7239 47 42C47 42.2761 46.7761 42.5 46.5 42.5H16.5C16.2239 42.5 16 42.2761 16 42Z" fill="#E3E3E3"/>
<path d="M19.6875 24C26.2114 24 31.5 18.6274 31.5 12C31.5 5.37258 26.2114 0 19.6875 0C13.1636 0 7.875 5.37258 7.875 12C7.875 18.6274 13.1636 24 19.6875 24Z" fill="#F1F3F4"/>
<path d="M19.5 24C26.1274 24 31.5 18.6274 31.5 12C31.5 5.37258 26.1274 0 19.5 0C12.8726 0 7.5 5.37258 7.5 12C7.5 18.6274 12.8726 24 19.5 24Z" fill="url(#paint0_linear_78_6645)"/>
<path fill-rule="evenodd" clip-rule="evenodd" d="M19.5 24C19.5 18.4772 15.1348 14 9.75 14C4.36522 14 0 18.4772 0 24C0.0143904 23.9774 19.5051 23.9846 19.5 24Z" fill="#F0F4F9"/>
<defs>
<linearGradient id="paint0_linear_78_6645" x1="7.5" y1="0" x2="31.0865" y2="23.5865" gradientUnits="userSpaceOnUse">
<stop stop-color="#F1F3F4"/>
<stop offset="1" stop-color="#DADCE0"/>
</linearGradient>
</defs>
</svg>
