<svg width="48" height="48" viewBox="0 0 48 48" fill="none" xmlns="http://www.w3.org/2000/svg">
<path fill-rule="evenodd" clip-rule="evenodd" d="M24.03 0C20.6321 4.10705 18.6 9.31819 18.6 14.9887C18.6 28.2435 29.7033 38.9887 43.4 38.9887C43.6576 38.9887 43.9143 38.9848 44.17 38.9773C39.6253 44.4706 32.6372 47.9887 24.8 47.9887C11.1033 47.9887 0 37.2435 0 23.9887C0 10.9831 10.6896 0.393746 24.03 0Z" fill="#FBBC04"/>
<path fill-rule="evenodd" clip-rule="evenodd" d="M24.03 0C20.6321 4.10705 18.6 9.31819 18.6 14.9887C18.6 28.2435 29.7033 38.9887 43.4 38.9887C43.6576 38.9887 43.9143 38.9848 44.17 38.9773C39.6253 44.4706 32.6372 47.9887 24.8 47.9887C11.1033 47.9887 0 37.2435 0 23.9887C0 10.9831 10.6896 0.393746 24.03 0Z" fill="url(#paint0_linear_78_6567)"/>
<path d="M30 48C39.9411 48 48 39.9411 48 30C48 20.0589 39.9411 12 30 12C20.0589 12 12 20.0589 12 30C12 39.9411 20.0589 48 30 48Z" fill="url(#paint1_linear_78_6567)"/>
<path fill-rule="evenodd" clip-rule="evenodd" d="M43.4 38.9888C43.6576 38.9888 43.9143 38.985 44.17 38.9775C40.6576 43.223 35.6857 46.2887 29.9904 47.4624C29.7061 39.4259 23.1034 33.0002 15 33.0002C14.075 33.0002 13.1695 33.0839 12.2907 33.2442C12.1001 32.1928 12 31.1082 12 30.0002C12 24.3742 14.5811 19.3511 18.6237 16.0503C19.1976 28.8124 30.0707 38.9888 43.4 38.9888Z" fill="url(#paint2_linear_78_6567)"/>
<path fill-rule="evenodd" clip-rule="evenodd" d="M15 33L15.4199 33.0058C23.51 33.2281 30 39.8561 30 48C30.0002 47.9994 29.9791 47.9988 29.9378 47.9982L29.8608 47.9973L29.7544 47.9964L29.6194 47.9955L29.4567 47.9947C29.3979 47.9944 29.3347 47.9941 29.2671 47.9939L29.0515 47.9931L28.8107 47.9923L28.5456 47.9915L28.257 47.9907L27.9458 47.99L27.6129 47.9892L27.259 47.9885L26.8851 47.9879L26.0805 47.9865L25.6516 47.9859L25.206 47.9853L24.7446 47.9847L23.7778 47.9836L23.2742 47.9831L22.2306 47.9822L21.6924 47.9817L20.0222 47.9806L19.4497 47.9802L17.1045 47.9791L16.5086 47.979L9.43372 47.979L8.87637 47.9792L6.7449 47.9805L6.24077 47.9809L5.27297 47.9818L4.811 47.9823L3.93519 47.9834L3.52306 47.9841C3.38869 47.9843 3.25737 47.9845 3.12925 47.9847L2.75461 47.9855C2.63302 47.9857 2.51476 47.9859 2.39999 47.9862L2.06624 47.987C1.85089 47.9876 1.65003 47.9881 1.46479 47.9887L1.19879 47.9897C1.02946 47.9903 0.876313 47.9909 0.740498 47.9916L0.549915 47.9927C0.195309 47.9949 0.00177113 47.9973 0 48C0 39.7157 6.71572 33 15 33Z" fill="#F1F3F4"/>
<path fill-rule="evenodd" clip-rule="evenodd" d="M30 48C30 39.7157 23.2843 33 15 33C6.71572 33 0 39.7157 0 48C0.0221391 47.966 30.0078 47.9769 30 48Z" fill="#F0F4F9"/>
<defs>
<linearGradient id="paint0_linear_78_6567" x1="3.37491" y1="5.1239e-07" x2="49.1239" y2="44.1953" gradientUnits="userSpaceOnUse">
<stop stop-color="#FCD35C"/>
<stop offset="1" stop-color="#FBBC04"/>
</linearGradient>
<linearGradient id="paint1_linear_78_6567" x1="28.2422" y1="28.6003" x2="48" y2="53.4727" gradientUnits="userSpaceOnUse">
<stop stop-color="#F1F3F4"/>
<stop offset="1" stop-color="#DEDFDF"/>
</linearGradient>
<linearGradient id="paint2_linear_78_6567" x1="38.8484" y1="46.731" x2="7.89024" y2="7.18154" gradientUnits="userSpaceOnUse">
<stop stop-color="#E4E5E5"/>
<stop offset="1" stop-color="#FCD35C"/>
</linearGradient>
</defs>
</svg>
