<svg width="48" height="48" viewBox="0 0 48 48" fill="none" xmlns="http://www.w3.org/2000/svg">
<path d="M12.9376 30.0629C18.7399 30.0629 23.4436 25.3593 23.4436 19.5569C23.4436 13.7546 18.7399 9.05095 12.9376 9.05095C7.13534 9.05095 2.43164 13.7546 2.43164 19.5569C2.43164 25.3593 7.13534 30.0629 12.9376 30.0629Z" fill="url(#paint0_linear_78_6670)"/>
<path d="M45.5693 16.7264C45.5693 8.00092 38.4968 0.928421 29.7713 0.928421C21.0458 0.928421 13.9733 8.00092 13.9733 16.7264C13.9733 19.7264 14.8568 22.5029 16.3088 24.8924C14.2538 26.7419 12.9368 29.3954 12.9368 32.3789C12.9368 37.7654 17.1638 42.1274 22.4753 42.4289C25.6238 42.6914 26.9018 44.5619 27.0068 47.0339C27.1388 47.0444 27.2663 47.0729 27.4013 47.0729C30.1388 47.0729 32.3588 44.8544 32.3588 42.1154C32.3588 40.7579 31.8113 39.5309 30.9278 38.6354C32.2988 36.9104 33.1538 34.7549 33.1538 32.3804C33.1538 32.3024 33.1328 32.2304 33.1298 32.1524C40.2383 30.6089 45.5693 24.2984 45.5693 16.7264Z" fill="url(#paint1_linear_78_6670)"/>
<defs>
<linearGradient id="paint0_linear_78_6670" x1="4.96814" y1="17.1511" x2="13.6732" y2="19.7791" gradientUnits="userSpaceOnUse">
<stop stop-color="#F1F3F4"/>
<stop offset="1" stop-color="#DEDFDF"/>
</linearGradient>
<linearGradient id="paint1_linear_78_6670" x1="17.6145" y1="9.41497" x2="29.5536" y2="23.8814" gradientUnits="userSpaceOnUse">
<stop stop-color="#F1F3F4" stop-opacity="0.8"/>
<stop offset="0.0053" stop-color="#F1F3F4" stop-opacity="0.8011"/>
<stop offset="0.5581" stop-color="#E3E4E4" stop-opacity="0.9116"/>
<stop offset="1" stop-color="#DEDFDF"/>
</linearGradient>
</defs>
</svg>
