<svg width="48" height="48" viewBox="0 0 48 48" fill="none" xmlns="http://www.w3.org/2000/svg">
<g clip-path="url(#clip0_78_6611)">
<mask id="mask0_78_6611" style="mask-type:alpha" maskUnits="userSpaceOnUse" x="0" y="0" width="48" height="44">
<path d="M33 36C33 34 34 33 36 33C38 33 39 34 39 36H48V0H0V39L22.5 43.5L34.5 40.5L33 36Z" fill="white"/>
</mask>
<g mask="url(#mask0_78_6611)">
<path d="M30 36C39.9411 36 48 27.9411 48 18C48 8.05887 39.9411 0 30 0C20.0589 0 12 8.05887 12 18C12 27.9411 20.0589 36 30 36Z" fill="#F1F3F4"/>
<path d="M30 36C39.9411 36 48 27.9411 48 18C48 8.05887 39.9411 0 30 0C20.0589 0 12 8.05887 12 18C12 27.9411 20.0589 36 30 36Z" fill="url(#paint0_linear_78_6611)"/>
<path fill-rule="evenodd" clip-rule="evenodd" d="M30 36C30 27.7157 23.2843 21 15 21C6.71572 21 0 27.7157 0 36C0.0221391 35.966 30.0078 35.9769 30 36Z" fill="#F0F4F9"/>
</g>
<path fill-rule="evenodd" clip-rule="evenodd" d="M38.7454 25.1361L36.3 27.5815L33.8545 25.1361L33.1474 25.8432L35.8 28.4957V32.9421C35.2156 33.0265 34.6784 33.2565 34.2263 33.5941L31.082 30.4499V26.6988H30.082V30.1571H26.6237V31.1571H30.375L33.5192 34.3012C33.1814 34.7534 32.9514 35.2906 32.867 35.875H28.4207L25.7681 33.2225L25.061 33.9296L27.5064 36.375L25.061 38.8204L25.7681 39.5275L28.4207 36.875H32.867C32.9513 37.4594 33.1814 37.9967 33.5191 38.4489L30.375 41.593H26.6237V42.593H30.082V46.0513H31.082V42.3002L34.2262 39.156C34.6784 39.4937 35.2156 39.7237 35.8 39.8081V44.2544L33.1474 46.9069L33.8545 47.614L36.1743 45.2942H36.4256L38.7454 47.614L39.4525 46.9069L36.8 44.2544V39.8081C37.3843 39.7237 37.9216 39.4937 38.3737 39.156L41.5179 42.3002V46.0513H42.5179V42.593H45.9762V41.593H42.225L39.0808 38.4489C39.4185 37.9967 39.6486 37.4594 39.7329 36.875H44.1792L46.8318 39.5275L47.5389 38.8204L45.0935 36.375L47.5389 33.9296L46.8318 33.2225L44.1792 35.875H39.7329C39.6486 35.2907 39.4185 34.7535 39.0809 34.3014L42.2251 31.1571L45.9762 31.1571V30.1571H42.5179V26.6988H41.5179V30.4501L38.3738 33.5943C37.9216 33.2565 37.3843 33.0265 36.8 32.9421V28.4957L39.4525 25.8432L38.7454 25.1361ZM36.2924 33.9063H36.3075C37.6675 33.9104 38.7687 35.0142 38.7687 36.3751C38.7687 37.054 38.4946 37.669 38.0511 38.1153C38.0475 38.1189 38.0438 38.1226 38.0401 38.1262C37.5969 38.5667 36.9873 38.8401 36.3138 38.8438H36.2861C34.9404 38.8364 33.8496 37.7523 33.8314 36.4092V36.341C33.8496 34.9958 34.9438 33.9104 36.2924 33.9063Z" fill="#7CACF8"/>
</g>
<defs>
<linearGradient id="paint0_linear_78_6611" x1="12" y1="0" x2="47.3798" y2="35.3798" gradientUnits="userSpaceOnUse">
<stop stop-color="#F1F3F4"/>
<stop offset="1" stop-color="#DADCE0"/>
</linearGradient>
<clipPath id="clip0_78_6611">
<rect width="48" height="48" fill="white"/>
</clipPath>
</defs>
</svg>
