<svg width="48" height="48" viewBox="0 0 48 48" fill="none" xmlns="http://www.w3.org/2000/svg">
<path d="M24 45C35.598 45 45 35.598 45 24C45 12.402 35.598 3 24 3C12.402 3 3 12.402 3 24C3 35.598 12.402 45 24 45Z" fill="url(#paint0_linear_78_6552)"/>
<path opacity="0.35" fill-rule="evenodd" clip-rule="evenodd" d="M15.2869 3.85451C15.2869 3.85453 15.2869 3.85449 15.2869 3.85451L14.0388 6.30666C13.4153 7.53107 12.2801 8.39589 10.954 8.63813C10.9539 8.63814 10.954 8.63813 10.954 8.63813L8.33045 9.11797C6.57002 9.4396 5.34045 11.1714 5.59683 13.062C5.59683 13.062 5.59684 13.062 5.59683 13.062L5.96983 15.8104C6.15564 17.1783 5.72591 18.5625 4.79866 19.5617L2.94656 21.5571C1.68445 22.9168 1.68437 25.0829 2.94661 26.4432L4.7986 28.438C5.72568 29.4375 6.15564 30.8218 5.96984 32.1893C5.96984 32.1893 5.96985 32.1892 5.96984 32.1893L5.59683 34.9382C5.34046 36.8282 6.56981 38.5601 8.33036 38.8822C8.33032 38.8822 8.3304 38.8823 8.33036 38.8822L10.9539 39.3616C12.2799 39.6043 13.4152 40.469 14.0387 41.6935L15.2869 44.1457C15.2869 44.1457 15.2869 44.1457 15.2869 44.1457C16.138 45.8172 18.0885 46.4648 19.6933 45.6468L22.0864 44.428C22.0863 44.428 22.0865 44.428 22.0864 44.428C23.2929 43.813 24.7071 43.8129 25.9139 44.428L28.3065 45.6468C29.9114 46.4648 31.8623 45.8172 32.713 44.1458L33.9616 41.6937C34.5847 40.4689 35.7204 39.6043 37.0463 39.3616L39.6694 38.8823C39.6694 38.8823 39.6695 38.8823 39.6694 38.8823C41.43 38.5601 42.6599 36.8281 42.4036 34.9383C42.4036 34.9382 42.4036 34.9383 42.4036 34.9383L42.0301 32.1894C41.8442 30.8218 42.2741 29.4376 43.2017 28.4381L45.0533 26.4432C45.0533 26.4432 45.0533 26.4432 45.0533 26.4432C46.3155 25.0829 46.3154 22.9168 45.0534 21.5571L43.2018 19.5618C43.2018 19.5617 43.2019 19.5618 43.2018 19.5618C42.2741 18.5626 41.8443 17.1783 42.0301 15.8104L42.4035 13.0621C42.6599 11.1716 41.4301 9.43964 39.6695 9.11799L37.0465 8.63816C37.0465 8.63815 37.0466 8.63816 37.0465 8.63816C35.7205 8.39593 34.5846 7.53123 33.9616 6.30658L32.713 3.85451C31.8624 2.18313 29.9115 1.53535 28.3065 2.35292C28.3065 2.35293 28.3066 2.35291 28.3065 2.35292L25.9139 3.57227C24.7071 4.1867 23.293 4.18684 22.0866 3.57232L19.6934 2.35295C19.6934 2.35295 19.6934 2.35296 19.6934 2.35295C18.0886 1.5354 16.138 2.183 15.2869 3.85451ZM14.3958 3.40077C15.487 1.25766 18.0298 0.383181 20.1474 1.46192L22.5404 2.68126C22.5404 2.68125 22.5405 2.68127 22.5404 2.68126C23.4616 3.15044 24.5381 3.15053 25.4599 2.6813C25.4598 2.68133 25.4599 2.68127 25.4599 2.6813L27.8525 1.46195C29.9699 0.383248 32.5134 1.25759 33.6042 3.40086L34.8528 5.85297C35.3396 6.80981 36.2182 7.47033 37.2262 7.65443L39.8493 8.13427C39.8492 8.13426 39.8493 8.13428 39.8493 8.13427C42.1692 8.55819 43.718 10.811 43.3945 13.1965L43.021 15.945C42.8746 17.0227 43.2149 18.1062 43.9346 18.8813L45.7863 20.8768C45.7863 20.8768 45.7863 20.8768 45.7863 20.8768C47.4045 22.6202 47.4044 25.3796 45.7863 27.1234L43.9347 29.1184C43.2148 29.894 42.8746 30.9775 43.021 32.0547L43.3945 34.8036C43.718 37.1887 42.1692 39.4415 39.8494 39.8659L37.2264 40.3453C37.2263 40.3453 37.2264 40.3453 37.2264 40.3453C36.2183 40.5299 35.3396 41.1903 34.8528 42.1471L33.6042 44.5994C32.5134 46.7426 29.9699 47.6171 27.8525 46.5378L25.4599 45.319C24.5382 44.8493 23.4617 44.8493 22.5406 45.3189L20.1474 46.5378C18.0299 47.6171 15.487 46.7426 14.3958 44.5995L13.1476 42.1473C13.1476 42.1472 13.1476 42.1473 13.1476 42.1473C12.6603 41.1903 11.782 40.5298 10.774 40.3453L8.15063 39.866C5.83073 39.4415 4.28239 37.1887 4.60591 34.8037L4.97892 32.0548C5.1253 30.9776 4.78509 29.8939 4.06558 29.1182L2.21367 27.1235C0.595536 25.3796 0.595368 22.6202 2.21362 20.8768L4.06568 18.8814C4.78504 18.1063 5.12533 17.0228 4.97893 15.945L4.60592 13.1965C4.28241 10.8112 5.83051 8.55821 8.15054 8.13429C8.15051 8.13429 8.15057 8.13428 8.15054 8.13429L10.7741 7.65445C11.7819 7.47037 12.6602 6.81007 13.1476 5.85304C13.1476 5.85307 13.1476 5.85302 13.1476 5.85304L14.3958 3.40077Z" fill="#FBBC04"/>
<defs>
<linearGradient id="paint0_linear_78_6552" x1="3" y1="3" x2="45" y2="45" gradientUnits="userSpaceOnUse">
<stop stop-color="#FCD35C"/>
<stop offset="1" stop-color="#FBBC04"/>
</linearGradient>
</defs>
</svg>
