<svg width="48" height="48" viewBox="0 0 48 48" fill="none" xmlns="http://www.w3.org/2000/svg">
<g clip-path="url(#clip0_78_6624)">
<path fill-rule="evenodd" clip-rule="evenodd" d="M30 0C39.9411 0 48 8.05887 48 18C48 22.565 46.3006 26.7331 43.5 29.9062V29.25C43.5 28.0805 42.6077 27.1193 41.4667 27.0103L41.25 27C40.0074 27 39 28.0074 39 29.25V33.5919C38.0032 34.1685 36.946 34.6523 35.8402 35.0314C35.4374 33.8498 34.3179 33 33 33C31.3431 33 30 34.3431 30 36C20.0589 36 12 27.9411 12 18C12 8.05887 20.0589 0 30 0Z" fill="url(#paint0_linear_78_6624)"/>
<path fill-rule="evenodd" clip-rule="evenodd" d="M30 36C30 27.7157 23.2843 21 15 21C6.71572 21 0 27.7157 0 36C0.0221391 35.966 30.0078 35.9769 30 36Z" fill="#F1F3F4"/>
<path fill-rule="evenodd" clip-rule="evenodd" d="M35.6843 25L33.2389 27.4454L30.7935 25L30.0864 25.7071L32.7389 28.3596V32.806C32.1546 32.8904 31.6174 33.1204 31.1653 33.4581L28.021 30.3138V26.5627H27.021V30.021H23.5626V31.021H27.314L30.4581 34.1651C30.1204 34.6173 29.8903 35.1545 29.8059 35.7389H25.3596L22.7071 33.0864L22 33.7935L24.4454 36.2389L22 38.6843L22.7071 39.3914L25.3596 36.7389H29.8059C29.8903 37.3233 30.1203 37.8606 30.4581 38.3128L27.3139 41.4569H23.5626V42.4569H27.021V45.9153H28.021V42.1641L31.1652 39.0199C31.6173 39.3576 32.1546 39.5876 32.7389 39.672V44.1183L30.0864 46.7708L30.7935 47.4779L33.1133 45.1581H33.3645L35.6843 47.4779L36.3914 46.7708L33.7389 44.1183V39.672C35.4177 39.4296 36.7077 37.9849 36.7077 36.239C36.7077 34.493 35.4177 33.0484 33.7389 32.806V28.3596L36.3914 25.7071L35.6843 25ZM33.2313 33.7703H33.2465C34.6065 33.7744 35.7077 34.8781 35.7077 36.239C35.7077 37.5978 34.6099 38.7002 33.2528 38.7077H33.225C31.868 38.7002 30.7702 37.5978 30.7702 36.239C30.7702 34.8781 31.8714 33.7744 33.2313 33.7703Z" fill="#7CACF8"/>
<path fill-rule="evenodd" clip-rule="evenodd" d="M41.25 27.4545C40.2584 27.4545 39.4545 28.2584 39.4545 29.25L39.4546 38.4767L39.273 38.6131C38.4715 39.2151 37.9545 40.1721 37.9545 41.25C37.9545 43.07 39.4299 44.5455 41.25 44.5455C43.07 44.5455 44.5454 43.07 44.5454 41.25C44.5454 40.1727 44.029 39.2162 43.2282 38.6141L43.0469 38.4778L43.0454 29.2501C43.0454 28.2585 42.2416 27.4545 41.25 27.4545ZM38.5454 29.25C38.5454 27.7563 39.7563 26.5455 41.25 26.5455C42.7436 26.5455 43.9545 27.7563 43.9545 29.2499L43.9559 38.0318C44.8715 38.8025 45.4545 39.9582 45.4545 41.25C45.4545 43.5721 43.5721 45.4545 41.25 45.4545C38.9278 45.4545 37.0454 43.5721 37.0454 41.25C37.0454 39.9575 37.629 38.8012 38.5455 38.0306L38.5454 29.25Z" fill="#7CACF8"/>
<path d="M41.25 43.5C42.4926 43.5 43.5 42.4926 43.5 41.25C43.5 40.0074 42.4926 39 41.25 39C40.0074 39 39 40.0074 39 41.25C39 42.4926 40.0074 43.5 41.25 43.5Z" fill="#7CACF8"/>
<path fill-rule="evenodd" clip-rule="evenodd" d="M41.9318 42.6566V35.1818C41.9318 34.8053 41.6265 34.5 41.2499 34.5C40.8734 34.5 40.5681 34.8053 40.5681 35.1818V42.6566H41.9318Z" fill="#7CACF8"/>
</g>
<defs>
<linearGradient id="paint0_linear_78_6624" x1="12" y1="0" x2="47.3798" y2="35.3798" gradientUnits="userSpaceOnUse">
<stop stop-color="#F1F3F4"/>
<stop offset="1" stop-color="#DADCE0"/>
</linearGradient>
<clipPath id="clip0_78_6624">
<rect width="48" height="48" fill="white"/>
</clipPath>
</defs>
</svg>
