<svg width="48" height="48" viewBox="0 0 48 48" fill="none" xmlns="http://www.w3.org/2000/svg">
<g clip-path="url(#clip0_78_6602)">
<path d="M30 36C39.9411 36 48 27.9411 48 18C48 8.05887 39.9411 0 30 0C20.0589 0 12 8.05887 12 18C12 27.9411 20.0589 36 30 36Z" fill="#F1F3F4"/>
<path d="M30 36C39.9411 36 48 27.9411 48 18C48 8.05887 39.9411 0 30 0C20.0589 0 12 8.05887 12 18C12 27.9411 20.0589 36 30 36Z" fill="url(#paint0_linear_78_6602)"/>
<path fill-rule="evenodd" clip-rule="evenodd" d="M30 36C30 27.7157 23.2843 21 15 21C6.71572 21 0 27.7157 0 36C0.0221391 35.966 30.0078 35.9769 30 36Z" fill="#F0F4F9"/>
<path fill-rule="evenodd" clip-rule="evenodd" d="M30 14.75C28.2051 14.75 26.75 16.2051 26.75 18C26.75 19.7949 28.2051 21.25 30 21.25C31.7949 21.25 33.25 19.7949 33.25 18C33.25 16.2051 31.7949 14.75 30 14.75ZM25.75 18C25.75 15.6528 27.6528 13.75 30 13.75C32.3472 13.75 34.25 15.6528 34.25 18C34.25 20.3472 32.3472 22.25 30 22.25C27.6528 22.25 25.75 20.3472 25.75 18Z" fill="#4C8DF6"/>
<circle cx="36" cy="36" r="3" fill="#1F1F1F"/>
<path fill-rule="evenodd" clip-rule="evenodd" d="M38.4453 25.1361L35.9999 27.5815L33.5545 25.1361L32.8474 25.8432L35.4999 28.4957V32.9421C34.9156 33.0265 34.3784 33.2565 33.9262 33.5941L30.782 30.4499V26.6988H29.782V30.1571H26.3236V31.1571H30.075L33.2191 34.3012C32.8814 34.7534 32.6513 35.2906 32.5669 35.875H28.1206L25.4681 33.2225L24.761 33.9296L27.2064 36.375L24.761 38.8204L25.4681 39.5275L28.1206 36.875H32.5669C32.6513 37.4594 32.8813 37.9967 33.2191 38.4489L30.0749 41.593H26.3236V42.593H29.782V46.0513H30.782V42.3002L33.9262 39.156C34.3783 39.4937 34.9155 39.7237 35.4999 39.8081V44.2544L32.8474 46.9069L33.5545 47.614L35.8743 45.2942H36.1255L38.4453 47.614L39.1524 46.9069L36.4999 44.2544V39.8081C37.0843 39.7237 37.6215 39.4937 38.0736 39.156L41.2181 42.3004V46.0513H42.2181V42.593H45.6764V41.593H41.9249L38.7808 38.4489C39.1185 37.9967 39.3485 37.4594 39.4329 36.875H43.8792L46.5317 39.5275L47.2388 38.8204L44.7934 36.375L47.2388 33.9296L46.5317 33.2225L43.8792 35.875H39.4329C39.3485 35.2907 39.1185 34.7535 38.7808 34.3014L41.9251 31.1571L45.6764 31.1571V30.1571H42.2181V26.6988H41.2181V30.4499L38.0737 33.5943C37.6216 33.2565 37.0843 33.0265 36.4999 32.9421V28.4957L39.1524 25.8432L38.4453 25.1361ZM35.9923 33.9063H36.0075C37.3675 33.9104 38.4687 35.0142 38.4687 36.3751C38.4687 37.054 38.1946 37.6689 37.7511 38.1153C37.7474 38.1189 37.7437 38.1226 37.7401 38.1262C37.2968 38.5667 36.6872 38.8401 36.0138 38.8438H35.986C34.629 38.8363 33.5312 37.7339 33.5312 36.3751C33.5312 35.0142 34.6323 33.9104 35.9923 33.9063Z" fill="#4285F4"/>
<path fill-rule="evenodd" clip-rule="evenodd" d="M41.2501 13.4467L43.9017 16.0983C45.3662 17.5628 45.3662 19.9372 43.9017 21.4017C42.4373 22.8661 40.0629 22.8661 38.5984 21.4017C37.134 19.9372 37.134 17.5628 38.5984 16.0983L41.2501 13.4467Z" fill="#4C8DF6"/>
</g>
<defs>
<linearGradient id="paint0_linear_78_6602" x1="12" y1="0" x2="47.3798" y2="35.3798" gradientUnits="userSpaceOnUse">
<stop stop-color="#F1F3F4"/>
<stop offset="1" stop-color="#DADCE0"/>
</linearGradient>
<clipPath id="clip0_78_6602">
<rect width="48" height="48" fill="white"/>
</clipPath>
</defs>
</svg>
