<svg xmlns="http://www.w3.org/2000/svg" fill="none" viewBox="0 0 48 48">
  <path fill="url(#a)" d="M20.761 4.944a4.617 4.617 0 0 1 4.295 4.295 4.62 4.62 0 0 0 1.13 2.724 4.62 4.62 0 0 1 0 6.074 4.622 4.622 0 0 0-1.13 2.724 4.616 4.616 0 0 1-4.295 4.295 4.622 4.622 0 0 0-2.724 1.129 4.618 4.618 0 0 1-6.074 0 4.622 4.622 0 0 0-2.724-1.129 4.617 4.617 0 0 1-4.295-4.295 4.622 4.622 0 0 0-1.129-2.724 4.62 4.62 0 0 1 0-6.074 4.62 4.62 0 0 0 1.13-2.724 4.618 4.618 0 0 1 4.294-4.295 4.622 4.622 0 0 0 2.724-1.129 4.62 4.62 0 0 1 6.074 0 4.622 4.622 0 0 0 2.724 1.129Z"/>
  <path fill="url(#b)" fill-opacity=".92" fill-rule="evenodd" d="m21.131 31 5.751-11.4c.588-1.425 1.317-2.35 2.876-2.35h17.178c.038-.413.064-.825.064-1.25 0-8.287-6.991-15-15.606-15-7.72 0-14.123 5.375-15.389 12.45a10.068 10.068 0 0 0-5.151-1.4C5.41 12.05 1 16.288 1 21.525c0 5.025 4.064 9.125 9.203 9.45V31h10.928Z" clip-rule="evenodd"/>
  <path fill="#0B57D0" d="m17 33-4.24 4.107a5.655 5.655 0 0 0 0 8.2c2.347 2.266 6.147 2.266 8.48 0a5.655 5.655 0 0 0 0-8.2l-.04-.04L17 33ZM7 22l-4.24 4.107a5.655 5.655 0 0 0 0 8.2c2.347 2.266 6.147 2.266 8.48 0a5.655 5.655 0 0 0 0-8.2l-.04-.04L7 22Z"/>
  <path fill="url(#c)" fill-rule="evenodd" d="M30.667 21 24 34.754h6L29.253 47 44 30.958l-5.333-.026L44 21H30.667Z" clip-rule="evenodd"/>
  <defs>
    <linearGradient id="a" x1="6.25" x2="23.167" y1="-3.083" y2="34.833" gradientUnits="userSpaceOnUse">
      <stop offset=".37" stop-color="#F1C100"/>
      <stop offset="1" stop-color="#F39607"/>
    </linearGradient>
    <linearGradient id="b" x1="34.19" x2="8.224" y1="8.817" y2="31.108" gradientUnits="userSpaceOnUse">
      <stop stop-color="#B5B5B5"/>
      <stop offset="1" stop-color="#E3E3E3"/>
    </linearGradient>
    <linearGradient id="c" x1="21.155" x2="54.142" y1="22.402" y2="48.411" gradientUnits="userSpaceOnUse">
      <stop offset=".194" stop-color="#F1C100"/>
      <stop offset=".708" stop-color="#F39607"/>
    </linearGradient>
  </defs>
</svg>