<svg xmlns="http://www.w3.org/2000/svg" fill="none" viewBox="0 0 48 48">
  <path fill="url(#a)" d="M26.97 5.324a6.272 6.272 0 0 1 5.986 5.985 6.3 6.3 0 0 0 1.532 3.835c2.082 2.401 2.084 5.985-.012 8.373l-.243.277a6.803 6.803 0 0 0-1.658 3.866 6.923 6.923 0 0 1-6.248 6.248 6.8 6.8 0 0 0-3.866 1.658l-.277.243c-2.388 2.097-5.973 2.094-8.373.013a6.294 6.294 0 0 0-3.835-1.533 6.273 6.273 0 0 1-5.986-5.986 6.293 6.293 0 0 0-1.532-3.834c-2.082-2.401-2.084-5.986.013-8.373l.243-.277a6.808 6.808 0 0 0 1.657-3.867 6.923 6.923 0 0 1 6.248-6.247 6.803 6.803 0 0 0 3.867-1.658l.276-.243c2.388-2.097 5.973-2.095 8.373-.013a6.3 6.3 0 0 0 3.835 1.533Z"/>
  <path fill="url(#b)" fill-opacity=".95" fill-rule="evenodd" d="M47 27.5c0 8.358-6.662 15.171-15 15.487V43H11v-.003l-.143.001C5.413 42.998 1 38.615 1 33.209c0-5.407 4.413-9.789 9.857-9.789 1.889 0 3.654.528 5.154 1.443C17.271 17.559 23.679 12 31.393 12 40.013 12 47 18.939 47 27.5Z" clip-rule="evenodd"/>
  <defs>
    <linearGradient id="a" x1="16.757" x2="17.556" y1="-10.362" y2="63.067" gradientUnits="userSpaceOnUse">
      <stop offset=".268" stop-color="#F1C100"/>
      <stop offset="1" stop-color="#F39607"/>
    </linearGradient>
    <linearGradient id="b" x1="18.212" x2="8.525" y1="37.144" y2="22.616" gradientUnits="userSpaceOnUse">
      <stop stop-color="#fff"/>
      <stop offset="1" stop-color="#E9E9E9"/>
    </linearGradient>
  </defs>
</svg>