<svg xmlns="http://www.w3.org/2000/svg" fill="none" viewBox="0 0 48 48">
  <path fill="url(#a)" fill-rule="evenodd" d="M16.688 2c-2.077 2.51-3.319 5.696-3.319 9.162 0 8.102 6.787 14.67 15.159 14.67.158 0 .315-.002.471-.007-2.778 3.358-7.049 5.508-11.84 5.508C8.787 31.333 2 24.765 2 16.663 2 8.714 8.534 2.241 16.688 2Z" clip-rule="evenodd"/>
  <path fill="url(#b)" fill-opacity=".92" fill-rule="evenodd" d="M47 30.999c0 7.983-6.489 14.51-14.674 14.973V46H10.196v-.021C5.061 45.653 1 41.545 1 36.527c0-5.232 4.413-9.473 9.857-9.473 1.889 0 3.654.511 5.154 1.396C17.27 21.381 23.678 16 31.393 16 40.013 16 47 22.715 47 30.999Z" clip-rule="evenodd"/>
  <defs>
    <linearGradient id="a" x1="-.348" x2="37.86" y1="2" y2="38.047" gradientUnits="userSpaceOnUse">
      <stop stop-color="#A8C7FA"/>
      <stop offset=".771" stop-color="#4C8DF6"/>
    </linearGradient>
    <linearGradient id="b" x1="18.212" x2="8.959" y1="40.333" y2="25.993" gradientUnits="userSpaceOnUse">
      <stop stop-color="#E3E3E3"/>
      <stop offset="1" stop-color="#F2F2F2"/>
    </linearGradient>
  </defs>
</svg>