<svg xmlns="http://www.w3.org/2000/svg" fill="none" viewBox="0 0 48 48">
  <path fill="url(#a)" d="M20.83 5.623a4.674 4.674 0 0 1 4.346 4.346 4.672 4.672 0 0 0 1.142 2.757 4.675 4.675 0 0 1 0 6.146 4.672 4.672 0 0 0-1.142 2.757 4.674 4.674 0 0 1-4.346 4.346 4.672 4.672 0 0 0-2.757 1.142 4.675 4.675 0 0 1-6.146 0 4.672 4.672 0 0 0-2.757-1.142 4.674 4.674 0 0 1-4.346-4.346 4.672 4.672 0 0 0-1.142-2.757 4.675 4.675 0 0 1 0-6.146 4.672 4.672 0 0 0 1.142-2.757A4.674 4.674 0 0 1 9.17 5.623a4.672 4.672 0 0 0 2.757-1.142 4.675 4.675 0 0 1 6.146 0 4.672 4.672 0 0 0 2.757 1.142Z"/>
  <path fill="url(#b)" fill-opacity=".92" fill-rule="evenodd" d="M47 16.5c0 8.358-6.662 15.171-15 15.488V32H11v-.002l-.143.001C5.413 31.999 1 27.616 1 22.21c0-5.407 4.413-9.79 9.857-9.79 1.889 0 3.654.528 5.154 1.444C17.271 6.559 23.678 1 31.393 1 40.013 1 47 7.939 47 16.5Z" clip-rule="evenodd"/>
  <path fill="#0B57D0" d="m23 20-4.243 4.101a5.663 5.663 0 0 0 0 8.201c2.343 2.264 6.142 2.264 8.486 0a5.663 5.663 0 0 0 0-8.201l-.038-.036L23 20ZM31 33l-4.243 4.101a5.663 5.663 0 0 0 0 8.201c2.343 2.264 6.142 2.264 8.486 0a5.663 5.663 0 0 0 0-8.201l-.038-.036L31 33ZM41 20l-4.243 4.101a5.662 5.662 0 0 0 0 8.2c2.344 2.265 6.143 2.265 8.486 0a5.662 5.662 0 0 0 0-8.2l-.038-.036L41 20Z"/>
  <defs>
    <linearGradient id="a" x1="6.146" x2="23.264" y1="-2.499" y2="35.868" gradientUnits="userSpaceOnUse">
      <stop offset=".37" stop-color="#F1C100"/>
      <stop offset="1" stop-color="#F39607"/>
    </linearGradient>
    <linearGradient id="b" x1="30.9" x2="8.558" y1="30.083" y2="11.527" gradientUnits="userSpaceOnUse">
      <stop stop-color="#B5B5B5"/>
      <stop offset="1" stop-color="#E3E3E3"/>
    </linearGradient>
  </defs>
</svg>