<svg xmlns="http://www.w3.org/2000/svg" fill="none" viewBox="0 0 48 48">
  <path fill="url(#a)" d="M33.876 6.76a7.92 7.92 0 0 1 7.364 7.364 7.916 7.916 0 0 0 1.934 4.67 7.919 7.919 0 0 1 0 10.413 7.91 7.91 0 0 0-1.934 4.669 7.92 7.92 0 0 1-7.364 7.364 7.91 7.91 0 0 0-4.669 1.934 7.92 7.92 0 0 1-10.414 0 7.91 7.91 0 0 0-4.669-1.934 7.92 7.92 0 0 1-7.364-7.364 7.91 7.91 0 0 0-1.934-4.669 7.919 7.919 0 0 1 0-10.413 7.916 7.916 0 0 0 1.934-4.67 7.92 7.92 0 0 1 7.364-7.364 7.91 7.91 0 0 0 4.67-1.934 7.92 7.92 0 0 1 10.413 0 7.91 7.91 0 0 0 4.67 1.934Z"/>
  <defs>
    <linearGradient id="a" x1="21.083" x2="19.989" y1="-12.459" y2="76.136" gradientUnits="userSpaceOnUse">
      <stop offset=".268" stop-color="#F1C100"/>
      <stop offset="1" stop-color="#F39607"/>
    </linearGradient>
  </defs>
</svg>