<svg xmlns="http://www.w3.org/2000/svg" width="32" height="32"><defs><linearGradient id="a" x1="0%" x2="112.465%" y1="0%" y2="100%"><stop offset="0%" stop-color="#FCD35C"/><stop offset="100%" stop-color="#FBBC04"/></linearGradient></defs><g fill="none" fill-rule="evenodd"><path fill="#FBBC04" d="M16.02 0c-2.265 2.738-3.62 6.212-3.62 9.992 0 8.837 7.402 16 16.533 16 .172 0 .343-.002.514-.007-3.03 3.662-7.689 6.007-12.914 6.007-9.13 0-16.533-7.163-16.533-16C0 7.322 7.126.262 16.02 0Z"/><path fill="url(#a)" d="M16.02 0c-2.265 2.738-3.62 6.212-3.62 9.992 0 8.837 7.402 16 16.533 16 .172 0 .343-.002.514-.007-3.03 3.662-7.689 6.007-12.914 6.007-9.13 0-16.533-7.163-16.533-16C0 7.322 7.126.262 16.02 0Z"/></g></svg>