<svg xmlns="http://www.w3.org/2000/svg" fill="none" viewBox="0 0 32 32">
  <path fill="#AECBFA" fill-rule="evenodd" d="M26.667 18.187c0 2.666-1.04 5.48-3.12 7.56a10.653 10.653 0 0 1-15.093 0c-2.08-2.08-3.12-4.894-3.12-7.56 0-2.667 1.04-5.44 3.12-7.52l7.547-7.534 7.546 7.534a10.693 10.693 0 0 1 3.12 7.52Z" clip-rule="evenodd"/>
  <path stroke="#202124" stroke-linecap="square" stroke-opacity=".5" d="M8.807 11.02 16 3.84l7.193 7.18a10.193 10.193 0 0 1 2.973 7.167c0 2.542-.993 5.226-2.973 7.206a10.154 10.154 0 0 1-14.386 0c-1.981-1.98-2.974-4.664-2.974-7.206 0-2.54.992-5.185 2.974-7.167Z"/>
</svg>