<svg xmlns="http://www.w3.org/2000/svg" fill="none" viewBox="0 0 48 48">
  <path fill="url(#a)" fill-opacity=".92" fill-rule="evenodd" d="M47 16.5c0 8.358-6.662 15.171-15 15.488V32H11v-.002l-.143.001C5.413 31.999 1 27.616 1 22.209c0-5.406 4.413-9.789 9.857-9.789 1.889 0 3.654.528 5.154 1.444C17.271 6.559 23.678 1 31.393 1 40.013 1 47 7.939 47 16.5Z" clip-rule="evenodd"/>
  <path fill="#757575" d="M21.98 35h-7.975c-.715 0-1.339.38-1.71 1.024a2.15 2.15 0 0 0-.052 2.079l3.987 7.789c.353.686 1.027 1.108 1.772 1.108.745 0 1.42-.422 1.772-1.108l3.986-7.789a2.174 2.174 0 0 0-.05-2.079C23.338 35.38 22.693 35 21.98 35ZM32.978 26h-7.973c-.715 0-1.339.38-1.712 1.024a2.153 2.153 0 0 0-.05 2.079l3.987 7.789c.352.686 1.027 1.108 1.771 1.108.746 0 1.42-.422 1.772-1.108l3.987-7.789a2.18 2.18 0 0 0-.05-2.079C34.337 26.38 33.693 26 32.978 26ZM43.98 35h-7.975c-.714 0-1.339.38-1.71 1.024a2.15 2.15 0 0 0-.052 2.079l3.987 7.789c.353.686 1.027 1.108 1.772 1.108.745 0 1.42-.422 1.772-1.108l3.986-7.789a2.174 2.174 0 0 0-.05-2.079C45.338 35.38 44.693 35 43.98 35Z"/>
  <defs>
    <linearGradient id="a" x1="30.9" x2="8.558" y1="30.082" y2="11.527" gradientUnits="userSpaceOnUse">
      <stop stop-color="#B5B5B5"/>
      <stop offset="1" stop-color="#E3E3E3"/>
    </linearGradient>
  </defs>
</svg>