<svg xmlns="http://www.w3.org/2000/svg" viewBox="0 0 32 32">
  <defs>
    <linearGradient id="a" x1="22.493%" x2="100%" y1="17.395%" y2="115.202%">
      <stop offset="0%" stop-color="#F1F3F4"/>
      <stop offset="100%" stop-color="#DEDFDF"/>
    </linearGradient>
    <linearGradient id="b" x1="100%" x2="50%" y1="100%" y2="100%">
      <stop offset="0%" stop-color="#FFF"/>
      <stop offset="100%" stop-color="#F1F3F4"/>
    </linearGradient>
  </defs>
  <g fill="none" fill-rule="evenodd">
    <circle cx="20" cy="12" r="12" fill="#F1F3F4"/>
    <circle cx="20" cy="12" r="12" fill="url(#a)"/>
    <path fill="url(#b)" d="M20 24c0-5.523-4.477-10-10-10S0 18.477 0 24c.015-.023 20.005-.015 20 0Z"/>
    <path fill="#FBBC04" d="M17.25 17.09 14 23.99h2.925l-.362 6.1 7.15-8.125h-2.564l2.601-4.875z"/>
    <path fill="#4285F4" d="m25.732 27.732 1.768-1.768 1.768 1.768a2.5 2.5 0 1 1-3.536 0Zm.036-16.964L27.536 9l1.767 1.768a2.5 2.5 0 1 1-3.535 0Z"/>
  </g>
</svg>