<svg xmlns="http://www.w3.org/2000/svg" fill="none" viewBox="0 0 48 48">
  <path fill="url(#a)" fill-rule="evenodd" d="M15.637 1c-1.688 2.053-2.711 4.653-2.711 7.493 0 6.627 5.527 12 12.355 12h.386C23.408 23.24 19.928 25 16.022 25 9.193 25 3.667 19.627 3.667 13c0-6.507 5.327-11.8 11.97-12Z" clip-rule="evenodd"/>
  <path fill="url(#b)" fill-opacity=".92" fill-rule="evenodd" d="m21.131 31 5.751-11.4c.588-1.425 1.317-2.35 2.876-2.35h17.178c.038-.413.064-.825.064-1.25 0-8.287-6.991-15-15.606-15-7.72 0-14.123 5.375-15.389 12.45a10.068 10.068 0 0 0-5.151-1.4C5.41 12.05 1 16.288 1 21.525c0 5.025 4.064 9.125 9.203 9.45V31h10.928Z" clip-rule="evenodd"/>
  <path fill="#0B57D0" d="m17 33-4.24 4.105a5.65 5.65 0 0 0 0 8.196c2.347 2.265 6.147 2.265 8.48 0a5.65 5.65 0 0 0 0-8.196l-.04-.04L17 33ZM7 22l-4.24 4.105a5.65 5.65 0 0 0 0 8.196c2.347 2.265 6.147 2.265 8.48 0a5.65 5.65 0 0 0 0-8.196l-.04-.04L7 22Z"/>
  <path fill="url(#c)" fill-rule="evenodd" d="M30.667 21 24 34.754h6L29.253 47 44 30.958l-5.333-.026L44 21H30.667Z" clip-rule="evenodd"/>
  <defs>
    <linearGradient id="a" x1="1.232" x2="32.479" y1="1.554" y2="30.927" gradientUnits="userSpaceOnUse">
      <stop stop-color="#E0ECFF"/>
      <stop offset=".771" stop-color="#4C8DF6"/>
    </linearGradient>
    <linearGradient id="b" x1="34.19" x2="8.224" y1="8.817" y2="31.108" gradientUnits="userSpaceOnUse">
      <stop stop-color="#B5B5B5"/>
      <stop offset="1" stop-color="#E3E3E3"/>
    </linearGradient>
    <linearGradient id="c" x1="21.155" x2="54.142" y1="22.402" y2="48.411" gradientUnits="userSpaceOnUse">
      <stop offset=".194" stop-color="#F1C100"/>
      <stop offset=".708" stop-color="#F39607"/>
    </linearGradient>
  </defs>
</svg>