<svg xmlns="http://www.w3.org/2000/svg" fill="none" viewBox="0 0 48 48">
  <path fill="url(#a)" fill-opacity=".92" fill-rule="evenodd" d="M47 16.5c0 8.358-6.662 15.171-15 15.488V32H11v-.002l-.143.001C5.413 31.999 1 27.616 1 22.21c0-5.407 4.413-9.79 9.857-9.79 1.889 0 3.655.528 5.154 1.444C17.271 6.559 23.679 1 31.393 1 40.013 1 47 7.939 47 16.5Z" clip-rule="evenodd"/>
  <path fill="#757575" fill-rule="evenodd" d="M19.13 41.391V47h1.74v-5.609l5.26 2.805.87-1.392L21.74 40 27 37.196l-.87-1.392-5.26 2.805V33h-1.74v5.609l-5.26-2.805-.87 1.392L18.26 40 13 42.804l.87 1.392 5.26-2.805Z" clip-rule="evenodd"/>
  <path fill="#757575" d="M19.13 41.391h.15v-.25l-.22.118.07.132Zm0 5.609h-.15v.15h.15V47Zm1.74 0v.15h.15V47h-.15Zm0-5.609.07-.132-.22-.118v.25h.15Zm5.26 2.805-.07.132.123.066.074-.119-.127-.079Zm.87-1.392.127.08.085-.136-.14-.076-.072.132ZM21.74 40l-.07-.132-.249.132.248.132.071-.132ZM27 37.196l.071.132.141-.076-.085-.136-.127.08Zm-.87-1.392.127-.079-.074-.119-.124.066.071.132Zm-5.26 2.805h-.15v.25l.22-.118-.07-.132Zm0-5.609h.15v-.15h-.15V33Zm-1.74 0v-.15h-.15V33h.15Zm0 5.609-.07.132.22.118v-.25h-.15Zm-5.26-2.805.071-.132-.124-.066-.074.119.127.079ZM13 37.196l-.127-.08-.085.136.141.076.071-.132ZM18.26 40l.071.132.248-.132-.248-.132-.07.132ZM13 42.804l-.07-.132-.142.076.085.136.127-.08Zm.87 1.392-.127.079.074.119.124-.066-.07-.132Zm5.11-2.805V47h.3v-5.609h-.3Zm.15 5.759h1.74v-.3h-1.74v.3Zm1.89-.15v-5.609h-.3V47h.3Zm-.22-5.476 5.26 2.804.141-.265-5.26-2.804-.142.265Zm5.457 2.751.87-1.391-.254-.159-.87 1.391.254.159Zm.814-1.603-5.26-2.804-.142.264 5.26 2.805.142-.265Zm-.142-5.609-5.26 2.805.141.264 5.261-2.804-.142-.265Zm-.926-1.179.87 1.391.254-.159-.87-1.391-.254.159Zm-5.063 2.857 5.261-2.804-.142-.265-5.26 2.805.141.264Zm.08-.132V33h-.3v5.609h.3Zm-.15-5.759h-1.74v.3h1.74v-.3Zm-1.89.15v5.609h.3V33h-.3Zm.221 5.476-5.26-2.804-.142.265 5.26 2.804.142-.265Zm-5.458-2.751-.87 1.391.254.159.87-1.391-.254-.159Zm-.814 1.603 5.261 2.804.141-.264-5.26-2.805-.142.265Zm.142 5.609 5.26-2.805-.14-.264-5.262 2.804.142.265Zm.926 1.179-.87-1.391-.254.159.87 1.391.254-.159Zm5.062-2.857-5.26 2.804.142.265 5.26-2.804-.142-.265Z"/>
  <path fill="#5E5E5E" d="m37 35 5.657 5.656L37 46.312l-5.657-5.656L37 35Z"/>
  <path fill="#0B57D0" d="m37 19-4.243 4.101a5.663 5.663 0 0 0 0 8.201c2.344 2.264 6.143 2.264 8.486 0a5.663 5.663 0 0 0 0-8.201l-.038-.036L37 19Z"/>
  <defs>
    <linearGradient id="a" x1="30.9" x2="8.558" y1="30.083" y2="11.527" gradientUnits="userSpaceOnUse">
      <stop stop-color="#B5B5B5"/>
      <stop offset="1" stop-color="#E3E3E3"/>
    </linearGradient>
  </defs>
</svg>