<svg xmlns="http://www.w3.org/2000/svg" viewBox="0 0 32 32">
  <defs>
    <linearGradient id="a" x1="0%" x2="112.465%" y1="0%" y2="100%">
      <stop offset="0%" stop-color="#FCD35C"/>
      <stop offset="100%" stop-color="#FBBC04"/>
    </linearGradient>
    <linearGradient id="b" x1="22.493%" x2="100%" y1="17.395%" y2="115.202%">
      <stop offset="0%" stop-color="#F1F3F4"/>
      <stop offset="100%" stop-color="#DEDFDF"/>
    </linearGradient>
    <linearGradient id="c" x1="83.458%" x2="-15.637%" y1="100%" y2="-29.648%">
      <stop offset="0%" stop-color="#E4E5E5"/>
      <stop offset="100%" stop-color="#FCD35C"/>
    </linearGradient>
  </defs>
  <g fill="none" fill-rule="evenodd">
    <path fill="#FBBC04" d="M16.02 0c-2.265 2.738-3.62 6.212-3.62 9.992 0 8.837 7.402 16 16.533 16 .172 0 .343-.002.514-.007-3.03 3.662-7.689 6.007-12.914 6.007-9.13 0-16.533-7.163-16.533-16C0 7.322 7.126.262 16.02 0Z"/>
    <path fill="url(#a)" d="M16.02 0c-2.265 2.738-3.62 6.212-3.62 9.992 0 8.837 7.402 16 16.533 16 .172 0 .343-.002.514-.007-3.03 3.662-7.689 6.007-12.914 6.007-9.13 0-16.533-7.163-16.533-16C0 7.322 7.126.262 16.02 0Z"/>
    <circle cx="23" cy="23" r="9" fill="url(#b)"/>
    <path fill="url(#c)" d="M14.146 24.622A9.053 9.053 0 0 1 14 23a8.96 8.96 0 0 1 1.078-4.274c2.95 4.375 8.054 7.266 13.855 7.266.172 0 .343-.002.514-.007a16.542 16.542 0 0 1-6.548 4.779 7.502 7.502 0 0 0-8.753-6.142Zm2.065 7.367Z"/>
    <path fill="#F1F3F4" d="M23 32a7.5 7.5 0 0 0-15 0c.011-.017 15.004-.012 15 0Z"/>
  </g>
</svg>