<svg xmlns="http://www.w3.org/2000/svg" fill="none" viewBox="0 0 48 48">
  <path fill="url(#a)" fill-opacity=".92" fill-rule="evenodd" d="M47 16.5c0 8.358-6.662 15.171-15 15.488V32H11v-.002l-.143.001C5.413 31.999 1 27.616 1 22.21c0-5.407 4.413-9.79 9.857-9.79 1.889 0 3.654.528 5.154 1.444C17.271 6.559 23.678 1 31.393 1 40.013 1 47 7.939 47 16.5Z" clip-rule="evenodd"/>
  <path fill="#757575" fill-rule="evenodd" d="M23.254 37.193V42h1.492v-4.807l4.508 2.403.746-1.192L25.491 36 30 33.596l-.746-1.192-4.508 2.404V30h-1.492v4.807l-4.508-2.403L18 33.596 22.509 36 18 38.404l.746 1.192 4.508-2.403Z" clip-rule="evenodd"/>
  <path fill="#757575" d="M23.254 37.193h.15v-.25l-.22.117.07.133Zm0 4.807h-.15v.15h.15V42Zm1.492 0v.15h.15V42h-.15Zm0-4.807.07-.133-.22-.117v.25h.15Zm4.508 2.403-.07.133.123.066.075-.119-.128-.08ZM30 38.404l.127.079.085-.136-.14-.076-.072.133ZM25.491 36l-.07-.132-.249.132.25.132.07-.132Zm4.51-2.404.07.133.141-.076-.085-.136-.127.079Zm-.747-1.192.128-.08-.075-.118-.123.065.07.133Zm-4.508 2.404h-.15v.25l.22-.118-.07-.132Zm0-4.808h.15v-.15h-.15V30Zm-1.492 0v-.15h-.15V30h.15Zm0 4.807-.07.133.22.117v-.25h-.15Zm-4.508-2.403.07-.133-.123-.065-.075.118.128.08ZM18 33.596l-.127-.079-.085.136.141.076.071-.133ZM22.51 36l.07.132.248-.132-.249-.132-.07.132ZM18 38.404l-.07-.133-.142.076.085.136.127-.079Zm.746 1.192-.128.08.075.119.123-.066-.07-.133Zm4.358-2.403V42h.3v-4.807h-.3Zm.15 4.957h1.492v-.3h-1.492v.3Zm1.642-.15v-4.807h-.3V42h.3Zm-.22-4.675 4.508 2.404.141-.265-4.509-2.404-.14.265Zm4.706 2.351.745-1.193-.254-.159-.746 1.193.255.159Zm.69-1.405-4.51-2.403-.14.264 4.507 2.404.142-.265Zm-.143-4.807-4.508 2.404.141.264 4.51-2.403-.143-.265Zm-.802-.981.746 1.193.254-.159-.745-1.193-.255.159Zm-4.31 2.457 4.508-2.404-.14-.265-4.51 2.404.141.265Zm.08-.132V30h-.3v4.808h.3Zm-.15-4.958h-1.493v.3h1.492v-.3Zm-1.643.15v4.807h.3V30h-.3Zm.221 4.675-4.509-2.404-.14.265 4.508 2.404.141-.265Zm-4.707-2.351-.745 1.193.254.159.746-1.193-.255-.159Zm-.689 1.405 4.51 2.403.14-.264-4.508-2.404-.142.265Zm.142 4.807 4.508-2.404-.14-.264-4.51 2.403.142.265Zm.802.981-.746-1.193-.254.159.745 1.193.255-.159Zm4.311-2.457-4.509 2.404.141.265 4.51-2.404-.142-.265Z"/>
  <path fill="#757575" fill-rule="evenodd" d="M36.379 42.993V47h1.242v-4.007l3.758 2.003.621-.993L38.243 42 42 39.996l-.621-.993-3.758 2.003V37h-1.242v4.006l-3.758-2.003-.621.993L35.757 42 32 44.003l.621.993 3.758-2.003Z" clip-rule="evenodd"/>
  <path fill="#757575" d="M36.38 42.993h.15v-.25l-.222.118.071.132Zm0 4.007h-.15v.15h.15V47Zm1.241 0v.15h.15V47h-.15Zm0-4.007.071-.132-.22-.118v.25h.15Zm3.758 2.003-.07.133.123.066.074-.119-.127-.08Zm.621-.993.127.079.085-.136-.14-.076-.072.133ZM38.243 42l-.07-.133-.249.133.248.132.071-.132ZM42 39.996l.071.133.141-.076-.085-.136-.127.079Zm-.62-.993.126-.08-.074-.119-.124.066.071.133Zm-3.759 2.003h-.15v.25l.221-.118-.07-.132Zm0-4.006h.15v-.15h-.15V37Zm-1.242 0v-.15h-.15V37h.15Zm0 4.006-.07.132.22.118v-.25h-.15Zm-3.758-2.003.071-.133-.124-.066-.074.119.127.08Zm-.62.993-.128-.079-.085.136.141.076.071-.133ZM35.756 42l.071.132.248-.132-.248-.133-.07.133ZM32 44.003l-.07-.133-.142.076.085.136.127-.079Zm.621.993-.127.08.074.119.124-.066-.07-.133Zm3.608-2.003V47h.3v-4.007h-.3Zm.15 4.157h1.242v-.3H36.38v.3Zm1.392-.15v-4.007h-.3V47h.3Zm-.22-3.874 3.757 2.003.141-.265-3.757-2.003-.14.265Zm3.955 1.95.621-.994-.254-.159-.622.994.255.159Zm.565-1.206-3.758-2.003-.14.265 3.756 2.003.142-.265Zm-.142-4.006-3.757 2.003.141.265 3.758-2.003-.142-.265Zm-.678-.782.622.994.254-.159-.62-.994-.256.159Zm-3.559 2.056 3.757-2.003-.14-.265-3.758 2.003.141.265Zm.08-.132V37h-.3v4.006h.3Zm-.15-4.156h-1.243v.3h1.242v-.3Zm-1.393.15v4.006h.3V37h-.3Zm.22 3.873-3.757-2.003-.14.265 3.756 2.003.141-.265Zm-3.955-1.95-.62.994.253.159.622-.994-.255-.159Zm-.565 1.206 3.758 2.003.141-.265-3.757-2.003-.142.265Zm.142 4.006 3.757-2.003-.14-.265-3.759 2.003.142.265Zm.678.782-.622-.994-.254.159.621.994.255-.159Zm3.56-2.056-3.758 2.003.141.265 3.757-2.003-.14-.265Z"/>
  <path fill="#757575" fill-rule="evenodd" d="M39.254 29.193V34h1.491v-4.807l4.509 2.403.746-1.192L41.491 28 46 25.596l-.746-1.192-4.509 2.404V22h-1.491v4.807l-4.508-2.403L34 25.596 38.509 28 34 30.404l.746 1.192 4.508-2.403Z" clip-rule="evenodd"/>
  <path fill="#757575" d="M39.254 29.193h.15v-.25l-.22.117.07.133Zm0 4.807h-.15v.15h.15V34Zm1.491 0v.15h.151V34h-.15Zm0-4.807.071-.133-.22-.117v.25h.15Zm4.51 2.403-.07.133.122.066.075-.119-.128-.08ZM46 30.404l.127.079.085-.136-.14-.076-.072.133ZM41.491 28l-.07-.132-.249.132.25.132.07-.132Zm4.51-2.404.07.133.141-.076-.085-.136-.127.079Zm-.747-1.192.128-.08-.075-.118-.123.065.07.133Zm-4.509 2.404h-.149v.25l.22-.118-.07-.132Zm0-4.808h.151v-.15h-.15V22Zm-1.49 0v-.15h-.15V22h.15Zm0 4.807-.07.133.22.117v-.25h-.15Zm-4.509-2.403.07-.133-.123-.065-.075.118.128.08ZM34 25.596l-.127-.079-.085.136.141.076.071-.133ZM38.51 28l.07.132.248-.132-.249-.132-.07.132ZM34 30.404l-.07-.133-.142.076.085.136.127-.079Zm.746 1.192-.128.08.075.119.123-.066-.07-.133Zm4.358-2.403V34h.3v-4.807h-.3Zm.15 4.957h1.491v-.3h-1.49v.3Zm1.642-.15v-4.807h-.3V34h.3Zm-.22-4.675 4.508 2.404.141-.265-4.509-2.404-.14.265Zm4.706 2.351.745-1.193-.254-.159-.746 1.193.255.159Zm.69-1.405-4.51-2.403-.14.264 4.507 2.404.142-.265Zm-.143-4.807-4.508 2.404.141.264 4.51-2.403-.143-.265Zm-.802-.981.746 1.193.254-.159-.745-1.193-.255.159Zm-4.31 2.457 4.508-2.404-.14-.265-4.51 2.404.141.265Zm.08-.132V22h-.3v4.808h.3Zm-.152-4.958h-1.49v.3h1.49v-.3Zm-1.64.15v4.807h.3V22h-.3Zm.22 4.675-4.509-2.404-.14.265 4.508 2.404.141-.265Zm-4.707-2.351-.745 1.193.254.159.746-1.193-.255-.159Zm-.689 1.405 4.51 2.403.14-.264-4.508-2.404-.142.265Zm.142 4.807 4.508-2.404-.14-.264-4.51 2.403.142.265Zm.802.981-.746-1.193-.254.159.745 1.193.255-.159Zm4.311-2.457-4.509 2.404.141.265 4.51-2.404-.142-.265Z"/>
  <defs>
    <linearGradient id="a" x1="30.9" x2="8.558" y1="30.083" y2="11.527" gradientUnits="userSpaceOnUse">
      <stop stop-color="#B5B5B5"/>
      <stop offset="1" stop-color="#E3E3E3"/>
    </linearGradient>
  </defs>
</svg>