<svg xmlns="http://www.w3.org/2000/svg" viewBox="0 0 32 32">
  <defs>
    <linearGradient id="a" x1="0%" x2="98.277%" y1="0%" y2="98.277%">
      <stop offset="0%" stop-color="#F1F3F4"/>
      <stop offset="100%" stop-color="#DADCE0"/>
    </linearGradient>
    <linearGradient id="b" x1="100%" x2="50%" y1="100%" y2="100%">
      <stop offset="0%" stop-color="#FFF"/>
      <stop offset="100%" stop-color="#F1F3F4"/>
    </linearGradient>
  </defs>
  <g fill="none" fill-rule="evenodd">
    <circle cx="20" cy="12" r="12" fill="#F1F3F4"/>
    <circle cx="20" cy="12" r="12" fill="url(#a)"/>
    <path fill="url(#b)" d="M20 24c0-5.523-4.477-10-10-10S0 18.477 0 24c.015-.023 20.005-.015 20 0Z"/>
    <path fill="#4285F4" d="m17.732 27.732 1.768-1.768 1.768 1.768a2.5 2.5 0 1 1-3.536 0Zm8 0 1.768-1.768 1.768 1.768a2.5 2.5 0 1 1-3.536 0Zm-7.964-16.964L19.536 9l1.767 1.768a2.5 2.5 0 1 1-3.535 0Zm8 0L27.536 9l1.767 1.768a2.5 2.5 0 1 1-3.535 0Zm-8 9L19.536 18l1.767 1.768a2.5 2.5 0 1 1-3.535 0Zm8 0L27.536 18l1.767 1.768a2.5 2.5 0 1 1-3.535 0Z"/>
  </g>
</svg>