<svg xmlns="http://www.w3.org/2000/svg" xmlns:xlink="http://www.w3.org/1999/xlink" width="32" height="32"><defs><linearGradient id="c" x1="0%" x2="98.277%" y1="0%" y2="98.277%"><stop offset="0%" stop-color="#F1F3F4"/><stop offset="100%" stop-color="#DADCE0"/></linearGradient><path id="a" d="M22 24c0-1.333.667-2 2-2s2 .667 2 2h6V0H0v26l15 3 8-2-1-3Z"/></defs><g fill="none" fill-rule="evenodd"><mask id="b" fill="#fff"><use xlink:href="#a"/></mask><g mask="url(#b)"><circle cx="20" cy="12" r="12" fill="#F1F3F4"/><circle cx="20" cy="12" r="12" fill="url(#c)"/><path fill="#F1F3F4" d="M20 24c0-5.523-4.477-10-10-10S0 18.477 0 24c.015-.023 20.005-.015 20 0Z"/></g><g stroke="#4285F4" transform="translate(14.7 14.75)"><path stroke-linecap="square" d="M9.5 11.48v3.633m0-10.891v3.299"/><path d="M11.366 2.243 9.5 4.11 7.634 2.243m3.732 14.514L9.5 14.89l-1.866 1.866"/><path stroke-linecap="square" d="m5.768 5.768 2.183 2.183M10.9 10.9l2.183 2.183"/><path d="M5.688 3.05v2.638H3.049m12.901 7.624h-2.638v2.639"/><path stroke-linecap="square" d="M4.546 9.5h2.975m3.959 0h2.974"/><path d="M2.243 7.634 4.11 9.5l-1.866 1.866m14.513-3.732L14.89 9.5l1.866 1.866"/><path stroke-linecap="square" d="m5.768 13.232 2.183-2.183M10.9 8.1l2.183-2.183"/><path d="M3.05 13.312h2.638v2.639M13.312 3.05v2.638h2.639"/><circle cx="9.5" cy="9.5" r="1.979"/></g></g></svg>