<svg xmlns="http://www.w3.org/2000/svg" xml:space="preserve" id="Layer_1" x="0" y="0" version="1.1" viewBox="0 0 32 32">
  <g id="Sun-_x26_-Cloud_11_">
    <circle id="Combined-Shape_6_" cx="16.751" cy="9.927" r="9.656" fill="#f1f3f4" fill-rule="evenodd" clip-rule="evenodd"/>
    <linearGradient id="Oval_5_" x1="-525.973" x2="-525.35" y1="426.73" y2="425.943" gradientTransform="matrix(24 0 0 -24 12635 10245)" gradientUnits="userSpaceOnUse">
      <stop offset="0" stop-color="#f1f3f4"/>
      <stop offset="1" stop-color="#dedfdf"/>
    </linearGradient>
    <circle id="Oval_18_" cx="16.751" cy="9.927" r="9.656" fill="url(#Oval_5_)" fill-rule="evenodd" clip-rule="evenodd"/>
    <linearGradient id="Oval_8_" x1="-520.712" x2="-521.115" y1="390.144" y2="390.144" gradientTransform="matrix(20 0 0 -10 10431 3917)" gradientUnits="userSpaceOnUse">
      <stop offset="0" stop-color="#fff"/>
      <stop offset="1" stop-color="#f1f3f4"/>
    </linearGradient>
    <path id="Oval_17_" fill="url(#Oval_8_)" fill-rule="evenodd" d="M16.751 19.583a8.047 8.047 0 0 0-16.094 0c.012-.018 16.098-.012 16.094 0z" clip-rule="evenodd"/>
  </g>
  <path id="Fill-1_3_" fill="#fbbc04" fill-rule="evenodd" d="m21.615 9.489-4.864 10.097h4.377l-.542 8.985 10.757-11.77-3.893-.016 3.893-7.296z" clip-rule="evenodd"/>
  <path id="Combined-Shape-Copy-6_9_" d="m3.221 24.176 1.82-1.82 1.82 1.82a2.575 2.575 0 1 1-3.64 0z" class="st2"/>
  <path id="Combined-Shape-Copy-6_8_" d="m10.546 24.176 1.82-1.82 1.82 1.82a2.575 2.575 0 1 1-3.64 0z" class="st2"/>
</svg>