<svg xmlns="http://www.w3.org/2000/svg" xmlns:xlink="http://www.w3.org/1999/xlink" viewBox="0 0 32 32">
  <defs>
    <path id="a" d="M20 24H0V0h32v24h-3v-4.5a1.5 1.5 0 0 0-3 0V24h-2a2 2 0 1 0-4 0Z"/>
    <path id="d" d="M8 15.938A7.938 7.938 0 1 1 8 .062a7.938 7.938 0 0 1 0 15.876Zm0-6.063a1.875 1.875 0 1 0 0-3.75 1.875 1.875 0 0 0 0 3.75Z"/>
    <linearGradient id="c" x1="0%" x2="98.277%" y1="0%" y2="98.277%">
      <stop offset="0%" stop-color="#F1F3F4"/>
      <stop offset="100%" stop-color="#DADCE0"/>
    </linearGradient>
  </defs>
  <g fill="none" fill-rule="evenodd">
    <mask id="b" fill="#fff">
      <use xlink:href="#a"/>
    </mask>
    <g mask="url(#b)">
      <circle cx="20" cy="12" r="12" fill="#F1F3F4"/>
      <circle cx="20" cy="12" r="12" fill="url(#c)"/>
      <path fill="#F1F3F4" d="M20 24c0-5.523-4.477-10-10-10S0 18.477 0 24c.015-.023 20.005-.015 20 0Z"/>
    </g>
    <g transform="translate(14 16)">
      <circle cx="8" cy="8" r="1.875" stroke="#4285F4" stroke-width=".909"/>
      <mask id="e" fill="#fff">
        <use xlink:href="#d"/>
      </mask>
      <g stroke="#4285F4" stroke-width=".909" mask="url(#e)">
        <path stroke-linecap="square" d="M8 3.307v10.01"/>
        <path d="M9.768 1.125 8 2.893 6.232 1.125m3.536 13.75L8 13.107l-1.768 1.768"/>
        <path stroke-linecap="square" d="M4.682 4.682 7.5 7.5"/>
        <path d="M4.389 1.889v2.5h-2.5"/>
        <path stroke-linecap="square" d="M3.307 8H7.53"/>
        <path d="M1.125 6.232 2.893 8 1.125 9.768"/>
        <path stroke-linecap="square" d="M4.682 11.318 7.5 8.5"/>
        <path d="M1.889 11.611h2.5v2.5"/>
      </g>
    </g>
    <path stroke="#4285F4" stroke-width=".909" d="M26 25.5v-6a1.5 1.5 0 0 1 3 0v6a2.5 2.5 0 1 1-3 0Z"/>
    <circle cx="27.5" cy="27.5" r="1.5" fill="#4285F4"/>
    <path fill="#4285F4" d="M27.955 28.438v-4.983a.455.455 0 1 0-.91 0v4.983h.91Z"/>
  </g>
</svg>