<svg xmlns="http://www.w3.org/2000/svg" fill="none" viewBox="0 0 48 48">
  <g clip-path="url(#a)">
    <mask id="b" width="48" height="48" x="0" y="0" maskUnits="userSpaceOnUse" style="mask-type:luminance">
      <path fill="#fff" d="M0 0h48v48H0V0Z"/>
    </mask>
    <g mask="url(#b)">
      <path fill="#ABABAB" fill-rule="evenodd" d="M37 3a6.91 6.91 0 0 0-6.918 6.909v18.429c0 .158 0 .304.013.462C28.191 30.623 27 33.173 27 36.013 27 41.522 31.471 46 37 46s10-4.465 10-9.987c0-2.84-1.19-5.403-3.095-7.213.013-.158.013-.304.013-.462V9.909C43.931 6.091 40.823 3 37 3Z" clip-rule="evenodd"/>
    </g>
    <path fill="#fff" fill-rule="evenodd" d="M37 5.51a3.746 3.746 0 0 0-3.743 3.739v20.978a6.905 6.905 0 0 0-3.175 5.812A6.91 6.91 0 0 0 37 42.948a6.91 6.91 0 0 0 6.918-6.909c0-2.43-1.27-4.584-3.175-5.812V9.249C40.757 7.188 39.077 5.51 37 5.51Z" clip-rule="evenodd"/>
    <path fill="#0B57D0" d="M37 32.948a3.746 3.746 0 0 1 3.743 3.739A3.745 3.745 0 0 1 37 40.425a3.746 3.746 0 0 1-3.743-3.738A3.746 3.746 0 0 1 37 32.948Z"/>
    <path fill="#0B57D0" d="M37 22.961a1.33 1.33 0 0 1 1.336 1.334v9.314c0 .74-.595 1.334-1.336 1.334a1.332 1.332 0 0 1-1.336-1.334v-9.314c.013-.726.608-1.334 1.336-1.334Z"/>
    <path fill="#757575" d="M22.603 38.646v-7.341A6.98 6.98 0 0 0 28 24.507a6.965 6.965 0 0 0-5.397-6.798v-7.341l4.634-4.665.46-.464-.46-.463-1.29-1.299L25.486 3l-.461.464-3.976 4.002-3.988-3.989-.461-.464-.461.464.448.464-.461-.464-1.29 1.299-.461.463.461.464 4.634 4.665v7.327a6.992 6.992 0 0 0-2.12.875l-5.147-5.181V6.141H9.07v6.334H2.79v3.153h7.201l5.148 5.182a6.782 6.782 0 0 0-.869 2.12H8.306l-4.634-4.665-.46.464-.461-.464-1.29 1.299-.461.464.461.464 3.975 4.001-3.975 4.002.461.477-.461-.464-.461.464.461.464 1.29 1.299.461.463.46-.463 4.634-4.665h5.964a6.77 6.77 0 0 0 .882 2.134l-5.147 5.181H2.79v3.154h6.293V42.873h3.133V35.624l5.134-5.181a6.969 6.969 0 0 0 2.12.888v7.315l-4.634 4.664-.461.464.461.464 1.29 1.298.461.464.46-.464 3.976-4.002 3.976 4.002.46.464.461-.464 1.29-1.298.461-.464-.461-.464-4.607-4.664Zm-1.461-10.283h-.211c-2.054-.053-3.712-1.749-3.726-3.83v-.04c.014-2.12 1.725-3.843 3.831-3.843 2.12 0 3.831 1.723 3.831 3.857a3.854 3.854 0 0 1-3.725 3.856Z"/>
    <path fill="#757575" d="m3.21 17.793-.465.469.465.468.466-.469-.466-.468Z"/>
  </g>
  <defs>
    <clipPath id="a">
      <path fill="#fff" d="M0 0h48v48H0z"/>
    </clipPath>
  </defs>
</svg>