<svg xmlns="http://www.w3.org/2000/svg" fill="none" viewBox="0 0 48 48">
  <g clip-path="url(#a)">
    <path fill="#ABABAB" fill-rule="evenodd" d="M35.577 4a6.5 6.5 0 0 0-6.5 6.5V29.859A9.973 9.973 0 0 0 26 37.076c0 5.522 4.477 10 10 10s10-4.478 10-10a9.969 9.969 0 0 0-3.077-7.216l.001-.052V10.5a6.5 6.5 0 0 0-6.5-6.5h-.847Z" clip-rule="evenodd"/>
    <path fill="#fff" fill-rule="evenodd" d="M36.001 6.513a3.75 3.75 0 0 0-3.75 3.75V31.27a6.923 6.923 0 1 0 7.5-.001V10.263a3.75 3.75 0 0 0-3.75-3.75Z" clip-rule="evenodd"/>
    <path fill="#EA4335" d="M36.001 34.003a3.75 3.75 0 1 1 0 7.5 3.75 3.75 0 0 1 0-7.5Z"/>
    <path fill="#EA4335" d="M36 12a1.333 1.333 0 0 1 1.333 1.333v21.334a1.333 1.333 0 1 1-2.666 0V13.333A1.333 1.333 0 0 1 36 12Z"/>
    <path fill="url(#b)" fill-rule="evenodd" d="M24.903 44.17a7.922 7.922 0 0 1-8.983-.995 7.923 7.923 0 0 0-4.67-1.935 7.917 7.917 0 0 1-7.363-7.363 7.923 7.923 0 0 0-1.935-4.67 7.919 7.919 0 0 1 0-10.413 7.923 7.923 0 0 0 1.935-4.67 7.917 7.917 0 0 1 7.363-7.363 7.922 7.922 0 0 0 4.67-1.934 7.917 7.917 0 0 1 10.413 0c.212.184.432.357.66.517a9.19 9.19 0 0 0-.779 3.718V27.62c-2.214 3.414-3.088 5.894-3.088 10.032 0 2.394.6 4.627 1.777 6.518Z" clip-rule="evenodd"/>
  </g>
  <defs>
    <linearGradient id="b" x1="21.085" x2="19.378" y1="-30.259" y2="64.194" gradientUnits="userSpaceOnUse">
      <stop offset=".287" stop-color="#FCCC41"/>
      <stop offset="1" stop-color="#E34E00"/>
    </linearGradient>
    <clipPath id="a">
      <path fill="#fff" d="M0 0h48v48H0z"/>
    </clipPath>
  </defs>
</svg>