<svg xmlns="http://www.w3.org/2000/svg" fill="none" viewBox="0 0 49 49">
  <path fill="#7CACF8" fill-rule="evenodd" d="M30.406 31.085c-3.405 3.576-3.313 9.143.275 12.611 3.682 3.559 9.652 3.559 13.334 0 3.682-3.559 3.682-9.328 0-12.887a6.223 6.223 0 0 0-.059-.056l-4.51-4.36a15.969 15.969 0 0 1-9.04 4.692Z" clip-rule="evenodd"/>
  <path fill="url(#a)" d="M40.493 15.074c0 6.853-5.462 12.44-12.299 12.699v.01H10.976l-.118-.001c-4.463 0-8.081-3.594-8.081-8.027 0-4.432 3.618-8.026 8.081-8.026 1.55 0 2.997.433 4.226 1.183 1.034-5.989 6.287-10.547 12.613-10.547 7.067 0 12.796 5.69 12.796 12.709Z"/>
  <defs>
    <linearGradient id="a" x1="33.996" x2="13.743" y1="34.632" y2="16.469" gradientUnits="userSpaceOnUse">
      <stop offset=".249" stop-color="#757575"/>
      <stop offset="1" stop-color="#ABABAB"/>
    </linearGradient>
  </defs>
</svg>