<svg xmlns="http://www.w3.org/2000/svg" fill="none" viewBox="0 0 48 48">
  <path fill="url(#a)" d="M33.995 7.163a8.022 8.022 0 0 1 7.45 7.451 8.022 8.022 0 0 0 1.958 4.725 8.022 8.022 0 0 1 0 10.537 8.025 8.025 0 0 0-1.957 4.726 8.023 8.023 0 0 1-7.451 7.451 8.021 8.021 0 0 0-4.726 1.957 8.02 8.02 0 0 1-10.536 0 8.021 8.021 0 0 0-4.726-1.957 8.024 8.024 0 0 1-7.452-7.451 8.025 8.025 0 0 0-1.957-4.726 8.022 8.022 0 0 1 0-10.537 8.022 8.022 0 0 0 1.957-4.725 8.022 8.022 0 0 1 7.452-7.451 8.027 8.027 0 0 0 4.726-1.957 8.02 8.02 0 0 1 10.535 0 8.027 8.027 0 0 0 4.727 1.957Z"/>
  <path fill="url(#b)" fill-opacity=".95" fill-rule="evenodd" d="M47 31.999c0 7.318-5.715 13.325-13 13.947V46H14v-.002c-4.971 0-9-3.959-9-8.842 0-4.883 4.029-8.841 9-8.841 1.725 0 3.337.476 4.706 1.303C19.857 23.021 25.706 18 32.75 18 40.62 18 47 24.268 47 31.999Z" clip-rule="evenodd"/>
  <defs>
    <linearGradient id="a" x1="21.049" x2="19.942" y1="-12.285" y2="77.364" gradientUnits="userSpaceOnUse">
      <stop offset=".268" stop-color="#F1C100"/>
      <stop offset="1" stop-color="#F39607"/>
    </linearGradient>
    <linearGradient id="b" x1="20.716" x2="12.003" y1="40.71" y2="27.502" gradientUnits="userSpaceOnUse">
      <stop stop-color="#fff"/>
      <stop offset="1" stop-color="#E9E9E9"/>
    </linearGradient>
  </defs>
</svg>