<svg xmlns="http://www.w3.org/2000/svg" fill="none" viewBox="0 0 48 48">
  <path fill="url(#a)" fill-rule="evenodd" d="M23.849 1c-3.231 3.937-5.163 8.932-5.163 14.368 0 12.705 10.558 23.005 23.582 23.005.245 0 .489-.004.732-.011C38.679 43.628 32.034 47 24.582 47 11.558 47 1 36.7 1 23.995 1 11.528 11.164 1.377 23.849 1Z" clip-rule="evenodd"/>
  <path fill="url(#b)" fill-opacity=".92" fill-rule="evenodd" d="M47 31.5c0 8.358-6.662 15.172-15 15.488V47H10.857C5.413 47 1 42.617 1 37.211c0-5.407 4.413-9.79 9.857-9.79 1.889 0 3.654.528 5.154 1.443C17.271 21.559 23.678 16 31.393 16 40.012 16 47 22.94 47 31.5Z" clip-rule="evenodd"/>
  <defs>
    <linearGradient id="a" x1="-2.652" x2="57.234" y1="1" y2="57.046" gradientUnits="userSpaceOnUse">
      <stop stop-color="#A8C7FA"/>
      <stop offset=".771" stop-color="#4C8DF6"/>
    </linearGradient>
    <linearGradient id="b" x1="18.212" x2="8.525" y1="41.144" y2="26.616" gradientUnits="userSpaceOnUse">
      <stop stop-color="#E3E3E3"/>
      <stop offset="1" stop-color="#F2F2F2"/>
    </linearGradient>
  </defs>
</svg>