<svg xmlns="http://www.w3.org/2000/svg" fill="none" viewBox="0 0 49 49">
  <path fill="#7CACF8" d="M16.606 2.598a.2.2 0 0 0-.278 0l-9.536 9.218c-5.344 5.164-5.343 13.538 0 18.703 5.344 5.165 14.008 5.165 19.352 0 5.344-5.165 5.344-13.538 0-18.703a13.117 13.117 0 0 0-.085-.082l-9.453-9.136Z"/>
  <path fill="url(#a)" fill-rule="evenodd" d="M23.4 36.477c-.32.137-.45.53-.22.793a4.64 4.64 0 0 1 1.133 2.736 4.64 4.64 0 0 0 4.315 4.316 4.64 4.64 0 0 1 2.737 1.133 4.64 4.64 0 0 0 6.103 0 4.64 4.64 0 0 1 2.736-1.133 4.64 4.64 0 0 0 4.316-4.316 4.641 4.641 0 0 1 1.133-2.736 4.64 4.64 0 0 0 0-6.103 4.64 4.64 0 0 1-1.133-2.737 4.64 4.64 0 0 0-4.316-4.315 4.64 4.64 0 0 1-2.736-1.134 4.63 4.63 0 0 0-3.03-1.144c-.47-.002-.815.402-.859.87-.356 3.773-2.024 7.45-5.003 10.329a17.167 17.167 0 0 1-5.177 3.44Z" clip-rule="evenodd"/>
  <defs>
    <radialGradient id="a" cx="0" cy="0" r="1" gradientTransform="matrix(5.75006 11.97393 -10.7138 5.14492 33.362 33.1)" gradientUnits="userSpaceOnUse">
      <stop offset=".156" stop-color="#FFD535"/>
      <stop offset=".546" stop-color="#FFD323"/>
      <stop offset=".974" stop-color="#E2A93A"/>
    </radialGradient>
  </defs>
</svg>