<svg xmlns="http://www.w3.org/2000/svg" fill="none" viewBox="0 0 48 48">
  <path fill="url(#a)" fill-rule="evenodd" d="M12.968 1a11.745 11.745 0 0 0-2.705 7.496c0 6.629 5.53 12.003 12.352 12.003.128 0 .256-.002.383-.006C20.735 23.24 17.254 25 13.351 25 6.53 25 1 19.626 1 12.997 1 6.493 6.324 1.197 12.968 1Z" clip-rule="evenodd"/>
  <path fill="url(#b)" fill-opacity=".9" fill-rule="evenodd" d="M47 16.5c0 8.358-6.662 15.171-15 15.488V32H11v-.002l-.143.001C5.413 31.999 1 27.616 1 22.21c0-5.407 4.413-9.79 9.857-9.79 1.889 0 3.654.528 5.154 1.444C17.271 6.559 23.678 1 31.393 1 40.013 1 47 7.939 47 16.5Z" clip-rule="evenodd"/>
  <path fill="#0B57D0" d="m23 20-4.243 4.101a5.663 5.663 0 0 0 0 8.201c2.343 2.264 6.142 2.264 8.486 0a5.663 5.663 0 0 0 0-8.201l-.038-.036L23 20ZM31 33l-4.243 4.101a5.663 5.663 0 0 0 0 8.201c2.343 2.264 6.142 2.264 8.486 0a5.663 5.663 0 0 0 0-8.201l-.038-.036L31 33ZM41 20l-4.243 4.101a5.662 5.662 0 0 0 0 8.2c2.344 2.265 6.143 2.265 8.486 0a5.662 5.662 0 0 0 0-8.2l-.038-.036L41 20Z"/>
  <defs>
    <linearGradient id="a" x1="-.913" x2="30.34" y1="1" y2="30.362" gradientUnits="userSpaceOnUse">
      <stop stop-color="#A8C7FA"/>
      <stop offset=".771" stop-color="#4C8DF6"/>
    </linearGradient>
    <linearGradient id="b" x1="30.9" x2="8.558" y1="30.083" y2="11.527" gradientUnits="userSpaceOnUse">
      <stop stop-color="#B5B5B5"/>
      <stop offset="1" stop-color="#E3E3E3"/>
    </linearGradient>
  </defs>
</svg>