<svg xmlns="http://www.w3.org/2000/svg" fill="none" viewBox="0 0 49 49">
  <g fill-rule="evenodd" clip-path="url(#a)" clip-rule="evenodd">
    <path fill="#7CACF8" d="M28.243 35.15c-.85 3.047-.039 6.437 2.436 8.83 3.682 3.558 9.653 3.558 13.336 0 3.682-3.56 3.682-9.33 0-12.89a7.739 7.739 0 0 0-.06-.056l-6.47-6.254a.2.2 0 0 0-.278 0l-.792.765a20.074 20.074 0 0 1-8.172 9.605Z"/>
    <path fill="#ABABAB" d="m24.873 23.998 1.495 5.58 3.188-.855-1.245-4.646 4.647-1.246-.854-3.187-5.581 1.496-2.637-1.522a6.257 6.257 0 0 0 .003-3.14l2.634-1.52 5.58 1.495.855-3.188-4.648-1.245 1.245-4.646-3.188-.854-1.495 5.58-2.625 1.515a6.239 6.239 0 0 0-2.73-1.59V9.01l4.086-4.085L21.27 2.59l-3.403 3.402-3.403-3.402-2.333 2.334 4.086 4.085v3.001a6.238 6.238 0 0 0-2.761 1.586L10.86 12.1 9.366 6.52l-3.188.855 1.245 4.647-4.646 1.245.854 3.187 5.581-1.495 2.59 1.495a6.254 6.254 0 0 0 .003 3.19L9.212 21.14 3.63 19.644l-.854 3.188 4.647 1.245-1.245 4.646 3.188.854 1.495-5.58 2.604-1.503a6.237 6.237 0 0 0 2.751 1.577v3.016l-4.086 4.085 2.333 2.334 3.403-3.402 3.403 3.402 2.333-2.334-4.086-4.085v-3.03a6.238 6.238 0 0 0 2.72-1.58l2.636 1.52Zm-7.03-8.9a2.944 2.944 0 1 0-.002 5.888 2.944 2.944 0 0 0 .001-5.889Z"/>
  </g>
  <defs>
    <clipPath id="a">
      <path fill="#fff" d="M.777.648h48v48h-48z"/>
    </clipPath>
  </defs>
</svg>