<svg xmlns="http://www.w3.org/2000/svg" fill="none" viewBox="0 0 48 48">
  <path fill="url(#a)" fill-rule="evenodd" d="M30.667 21 24 34.757h6L29.257 47 44 30.962l-5.335-.021L44 21H30.667Z" clip-rule="evenodd"/>
  <path fill="url(#b)" fill-rule="evenodd" d="M18.667 37 16 42.291h2.4L18.103 47 24 40.832l-2.134-.008L24 37h-5.333Z" clip-rule="evenodd"/>
  <path fill="url(#c)" fill-opacity=".92" fill-rule="evenodd" d="M27.304 20.22 21.604 32H18.77a.836.836 0 0 1-.298-1.105l1.045-1.952c.712-1.332-.253-2.943-1.764-2.943h-3.586c-.179 0-.353.024-.521.069a1.976 1.976 0 0 0-.522-.069h-3.039c-.771 0-1.474.444-1.806 1.141l-1.821 3.828C3.223 29.366 1 26.049 1 22.209c0-5.412 4.41-9.791 9.854-9.791a9.82 9.82 0 0 1 5.151 1.447C17.271 6.554 23.674 1 31.394 1 40.009 1 47 7.936 47 16.5c0 .439-.026.865-.064 1.292H30.857a3.83 3.83 0 0 0-3.553 2.428Z" clip-rule="evenodd"/>
  <path fill="url(#d)" fill-rule="evenodd" d="m10 28-4 7.937h3.6L9.154 43 18 33.748l-3.201-.013L18 28h-8Z" clip-rule="evenodd"/>
  <defs>
    <linearGradient id="a" x1="21.155" x2="54.142" y1="22.402" y2="48.411" gradientUnits="userSpaceOnUse">
      <stop offset=".194" stop-color="#F1C100"/>
      <stop offset=".708" stop-color="#F39607"/>
    </linearGradient>
    <linearGradient id="b" x1="14.862" x2="27.657" y1="37.539" y2="48.031" gradientUnits="userSpaceOnUse">
      <stop offset=".194" stop-color="#F1C100"/>
      <stop offset=".708" stop-color="#F39607"/>
    </linearGradient>
    <linearGradient id="c" x1="34.633" x2="7.034" y1="8.338" y2="31.516" gradientUnits="userSpaceOnUse">
      <stop stop-color="#B5B5B5"/>
      <stop offset="1" stop-color="#E3E3E3"/>
    </linearGradient>
    <linearGradient id="d" x1="4.293" x2="23.485" y1="28.809" y2="44.547" gradientUnits="userSpaceOnUse">
      <stop offset=".194" stop-color="#F1C100"/>
      <stop offset=".708" stop-color="#F39607"/>
    </linearGradient>
  </defs>
</svg>