<svg xmlns="http://www.w3.org/2000/svg" fill="none" viewBox="0 0 49 49">
  <g clip-path="url(#a)">
    <path fill="url(#b)" d="M27.04 5.521a6.21 6.21 0 0 1 5.775 5.775 6.21 6.21 0 0 0 1.517 3.662 6.21 6.21 0 0 1 0 8.166 6.21 6.21 0 0 0-1.517 3.662 6.21 6.21 0 0 1-5.775 5.774 6.21 6.21 0 0 0-3.662 1.517 6.21 6.21 0 0 1-8.166 0 6.21 6.21 0 0 0-3.662-1.517 6.21 6.21 0 0 1-5.774-5.774 6.21 6.21 0 0 0-1.517-3.662 6.21 6.21 0 0 1 0-8.166 6.21 6.21 0 0 0 1.517-3.662A6.21 6.21 0 0 1 11.55 5.52a6.21 6.21 0 0 0 3.662-1.517 6.21 6.21 0 0 1 8.166 0A6.21 6.21 0 0 0 27.04 5.52Z"/>
    <path fill="#7CACF8" fill-rule="evenodd" d="M28.035 35.971c-.46 2.787.421 5.74 2.644 7.889 3.682 3.56 9.653 3.56 13.336 0 3.682-3.56 3.682-9.33 0-12.89l-.06-.056-6.419-6.204a9.803 9.803 0 0 1-.567.715 2.71 2.71 0 0 0-.662 1.598 9.71 9.71 0 0 1-8.272 8.948Z" clip-rule="evenodd"/>
  </g>
  <defs>
    <radialGradient id="b" cx="0" cy="0" r="1" gradientTransform="matrix(9.08086 15.01835 -15.98216 9.66363 16.501 15.897)" gradientUnits="userSpaceOnUse">
      <stop offset=".156" stop-color="#FFD535"/>
      <stop offset=".546" stop-color="#FFD323"/>
      <stop offset=".974" stop-color="#E2A93A"/>
    </radialGradient>
    <clipPath id="a">
      <path fill="#fff" d="M.777.53h48v48h-48z"/>
    </clipPath>
  </defs>
</svg>