<svg xmlns="http://www.w3.org/2000/svg" width="48" height="48" fill="none"><path fill="#8F8F8F" fill-rule="evenodd" d="M28 14c0-3.31-2.69-6-6-6h-2v4h2c1.1 0 2 .9 2 2s-.9 2-2 2H5v4h17c3.31 0 6-2.69 6-6ZM13 28H5v4h8c1.1 0 2 .9 2 2s-.9 2-2 2h-2v4h2c3.31 0 6-2.69 6-6s-2.69-6-6-6Zm-8-6h32c3.31 0 6 2.69 6 6s-2.69 6-6 6h-2v-4h2c1.1 0 2-.9 2-2s-.9-2-2-2H5v-4Z" clip-rule="evenodd"/><path fill="#E3E3E3" d="m31.3 17.87 3.7-2.13V20h2v-4.26l3.69 2.13 1-1.74L38 14l3.69-2.13-1-1.74L37 12.27V8h-2v4.26l-3.69-2.13-1 1.74L34 14l-3.69 2.13.99 1.74ZM21.99 37.87l3.7-2.13V40h2v-4.26l3.69 2.13 1-1.74L28.69 34l3.69-2.13-1-1.74-3.69 2.14V28h-2v4.26L22 30.13l-1 1.74L24.69 34 21 36.13l.99 1.74Z"/></svg>