<svg xmlns="http://www.w3.org/2000/svg" width="48" height="48" fill="none"><mask id="a" width="38" height="26" x="5" y="11" maskUnits="userSpaceOnUse" style="mask-type:luminance"><path fill="#fff" fill-rule="evenodd" d="m31.3 20.87 3.7-2.13V23h2v-4.26l3.69 2.13 1-1.74L38 17l3.69-2.13-1-1.74L37 15.27V11h-2v4.26l-3.69-2.13-1 1.74L34 17l-3.69 2.13.99 1.74ZM28 17c0-3.31-2.69-6-6-6h-2v4h2c1.1 0 2 .9 2 2s-.9 2-2 2H5v4h17c3.31 0 6-2.69 6-6Zm9 8H5v4h32c1.1 0 2 .9 2 2s-.9 2-2 2h-2v4h2c3.31 0 6-2.69 6-6s-2.69-6-6-6Z" clip-rule="evenodd"/></mask><g mask="url(#a)"><path fill="#8F8F8F" fill-rule="evenodd" d="M22 11c3.31 0 6 2.69 6 6s-2.69 6-6 6H5v-4h17c1.1 0 2-.9 2-2s-.9-2-2-2h-2v-4h2ZM5 25h32c3.31 0 6 2.69 6 6s-2.69 6-6 6h-2v-4h2c1.1 0 2-.9 2-2s-.9-2-2-2H5v-4Z" clip-rule="evenodd"/></g><path fill="#E3E3E3" fill-rule="evenodd" d="m41.7 14.87-1-1.74-3.7 2.14V11h-2v4.27l-3.7-2.14-1 1.74L34 17l-3.7 2.13 1 1.74 3.7-2.13V23h2v-4.26l3.7 2.13 1-1.74L38 17l3.7-2.13Z" clip-rule="evenodd"/></svg>