<svg xmlns="http://www.w3.org/2000/svg" fill="none" viewBox="0 0 49 49">
  <path fill="#ABABAB" fill-rule="evenodd" d="m35.837 29.808-.127.127a.5.5 0 0 0-.146.354v1.29c0 .22.142.41.345.492.399.162.77.38 1.103.642.172.136.41.166.6.056l1.124-.65a.5.5 0 0 0 .233-.303l.836-3.12a.5.5 0 0 1 .613-.354l1.642.44a.5.5 0 0 1 .353.613l-.555 2.074a.5.5 0 0 0 .353.612l2.074.556a.5.5 0 0 1 .354.612l-.44 1.642a.5.5 0 0 1-.612.354l-3.122-.837a.5.5 0 0 0-.38.05l-1.131.654a.538.538 0 0 0-.253.544 4.59 4.59 0 0 1-.001 1.266.538.538 0 0 0 .252.545l1.134.655a.5.5 0 0 0 .38.05l3.12-.837a.5.5 0 0 1 .613.354l.44 1.642a.5.5 0 0 1-.354.612l-2.074.556a.5.5 0 0 0-.353.612l.556 2.075a.5.5 0 0 1-.354.612l-1.642.44a.5.5 0 0 1-.612-.354l-.837-3.12a.5.5 0 0 0-.233-.304l-1.131-.653a.538.538 0 0 0-.6.055c-.331.26-.7.476-1.096.637a.538.538 0 0 0-.345.491v1.301a.5.5 0 0 0 .146.354l2.285 2.284a.5.5 0 0 1 0 .708l-1.202 1.202a.5.5 0 0 1-.707 0l-1.519-1.519a.5.5 0 0 0-.707 0l-1.518 1.519a.5.5 0 0 1-.707 0l-1.202-1.202a.5.5 0 0 1 0-.708l2.284-2.284a.5.5 0 0 0 .147-.354v-1.287a.538.538 0 0 0-.349-.492 4.546 4.546 0 0 1-1.114-.64.538.538 0 0 0-.598-.054l-1.111.642a.5.5 0 0 0-.233.303l-.837 3.121a.5.5 0 0 1-.612.354l-1.642-.44a.5.5 0 0 1-.353-.613l.555-2.074a.5.5 0 0 0-.353-.612l-2.074-.556a.5.5 0 0 1-.354-.612l.44-1.643a.5.5 0 0 1 .612-.353l3.121.836a.5.5 0 0 0 .38-.05l1.101-.636c.19-.11.284-.33.252-.547a4.584 4.584 0 0 1 0-1.298.538.538 0 0 0-.253-.547l-1.1-.635a.5.5 0 0 0-.38-.05l-3.12.836a.5.5 0 0 1-.613-.353l-.44-1.642a.5.5 0 0 1 .353-.613l2.075-.555a.498.498 0 0 0 .27-.184h1.815l.234-.014c.31-.013.618-.034.923-.063a.5.5 0 0 0 .233.3l1.104.637c.19.11.426.081.598-.054a4.543 4.543 0 0 1 1.12-.645.538.538 0 0 0 .35-.492v-.45a15.928 15.928 0 0 0 2.973-1.308Zm-3.488 6.477a1.848 1.848 0 1 1 3.695 0 1.848 1.848 0 0 1-3.695 0Z" clip-rule="evenodd"/>
  <path fill="url(#a)" d="M40.497 15.687c0 6.854-5.463 12.44-12.3 12.7v.01H10.859c-4.464 0-8.082-3.595-8.082-8.028s3.618-8.027 8.082-8.027c1.55 0 2.997.433 4.227 1.183 1.033-5.99 6.287-10.548 12.613-10.548 7.068 0 12.798 5.69 12.798 12.71Z"/>
  <defs>
    <linearGradient id="a" x1="33.999" x2="13.744" y1="35.247" y2="17.082" gradientUnits="userSpaceOnUse">
      <stop offset=".249" stop-color="#757575"/>
      <stop offset="1" stop-color="#ABABAB"/>
    </linearGradient>
  </defs>
</svg>