<svg xmlns="http://www.w3.org/2000/svg" width="48" height="48" fill="none"><path fill="url(#a)" fill-rule="evenodd" d="M47 16.5c0 8.358-6.662 15.171-15 15.488V32H11v-.002h-.143C5.413 31.999 1 27.617 1 22.21c0-5.407 4.413-9.79 9.857-9.79a9.86 9.86 0 0 1 5.154 1.444C17.27 6.559 23.678 1 31.393 1 40.013 1 47 7.94 47 16.5Z" clip-rule="evenodd"/><path fill="#E3E3E3" fill-rule="evenodd" d="M34.379 39.993V44h1.242v-4.007l3.758 2.003.621-.993-3.757-2.004L40 36.996l-.621-.993-3.758 2.003V34H34.38v4.006l-3.758-2.003-.621.993L33.757 39 30 41.003l.621.993 3.758-2.003Z" clip-rule="evenodd"/><path fill="#E3E3E3" d="M34.379 39.993h.15v-.25l-.22.118.07.132Zm0 4.007h-.15v.15h.15V44Zm1.242 0v.15h.15V44h-.15Zm0-4.007.071-.132-.22-.118v.25h.15Zm3.758 2.003-.07.133.123.066.074-.12-.127-.079Zm.621-.993.127.08.085-.137-.141-.076-.071.133Zm-3.757-2.004-.07-.132-.25.133.25.132.07-.133ZM40 36.996l.07.133.142-.076-.085-.136-.127.08Zm-.621-.993.127-.08-.074-.119-.124.066.07.133Zm-3.758 2.003h-.15v.25l.221-.118-.07-.132Zm0-4.006h.15v-.15h-.15V34Zm-1.242 0v-.15h-.15V34h.15Zm0 4.006-.07.132.22.118v-.25h-.15Zm-3.758-2.003.07-.133-.123-.066-.074.12.127.079Zm-.621.993-.127-.08-.085.137.141.076.071-.133ZM33.757 39l.07.133.25-.133-.25-.132-.07.133ZM30 41.003l-.07-.133-.142.076.085.136.127-.08Zm.621.993-.127.08.074.119.124-.066-.07-.133Zm3.608-2.003V44h.3v-4.007h-.3Zm.15 4.157h1.242v-.3H34.38v.3ZM35.77 44v-4.007h-.3V44h.3Zm-.22-3.874 3.757 2.003.141-.265-3.757-2.003-.141.265Zm3.955 1.95.621-.994-.254-.159-.622.994.255.159Zm.565-1.206-3.758-2.003-.14.265 3.756 2.003.142-.265Zm-.142-4.006-3.757 2.003.141.265 3.758-2.003-.142-.265Zm-.678-.782.622.994.254-.16-.621-.993-.255.16Zm-3.559 2.056 3.757-2.003-.14-.265-3.758 2.003.141.265Zm.08-.132V34h-.3v4.006h.3Zm-.15-4.156h-1.243v.3h1.242v-.3Zm-1.393.15v4.006h.3V34h-.3Zm.22 3.873-3.757-2.003-.141.265 3.757 2.003.141-.265Zm-3.955-1.95-.621.994.254.159.622-.994-.255-.159Zm-.565 1.206 3.758 2.003.14-.265-3.756-2.003-.142.265Zm.142 4.006 3.757-2.003-.141-.265-3.758 2.003.142.265Zm.678.782-.622-.994-.254.16.621.993.255-.16Zm3.56-2.056-3.758 2.003.14.265 3.758-2.003-.14-.265Z"/><defs><linearGradient id="a" x1="30.9" x2="8.558" y1="30.083" y2="11.527" gradientUnits="userSpaceOnUse"><stop stop-color="#474747"/><stop offset="1" stop-color="#757575"/></linearGradient></defs></svg>