<svg xmlns="http://www.w3.org/2000/svg" width="48" height="48" fill="none"><path fill="#ABABAB" stroke="#ABABAB" d="M20.5 1.55a1 1 0 1 0 0 2c11.123 0 20.14 9.018 20.14 20.14a1 1 0 1 0 2 0c0-12.227-9.913-22.14-22.14-22.14ZM5.5 24.45a1 1 0 1 1 2 0c0 11.123 9.018 20.14 20.14 20.14a1 1 0 1 1 0 2c-12.227 0-22.14-9.912-22.14-22.14Z"/><path fill="#ABABAB" fill-rule="evenodd" d="M5.007 27.422C8.038 31.81 14.461 39 24 39c9.539 0 15.962-7.19 18.993-11.578a5.821 5.821 0 0 0 .024-6.636C39.997 16.336 33.564 9 24 9 14.435 9 8.004 16.337 4.983 20.786a5.821 5.821 0 0 0 .024 6.636ZM36 24c0 6.627-5.373 12-12 12s-12-5.373-12-12 5.373-12 12-12 12 5.373 12 12Z" clip-rule="evenodd"/><path fill="#ABABAB" stroke="#ABABAB" d="M18.25 24a5.75 5.75 0 1 1 11.5 0 5.75 5.75 0 0 1-11.5 0ZM24 16.25a7.75 7.75 0 1 0 0 15.5 7.75 7.75 0 0 0 0-15.5Z"/></svg>