<svg xmlns="http://www.w3.org/2000/svg" width="48" height="48" fill="none"><path fill="url(#a)" fill-rule="evenodd" d="M47 16.5c0 8.249-6.489 14.993-14.674 15.472V32h-22.13v-.023C5.062 31.64 1 27.396 1 22.21c0-5.407 4.413-9.79 9.857-9.79 1.89 0 3.654.528 5.154 1.444C17.271 6.559 23.679 1 31.393 1 40.013 1 47 7.94 47 16.5Z" clip-rule="evenodd"/><path fill="#E3E3E3" d="M21.979 35h-7.974c-.715 0-1.339.38-1.711 1.024a2.151 2.151 0 0 0-.05 2.079l3.986 7.789c.352.686 1.027 1.108 1.772 1.108.745 0 1.42-.422 1.772-1.108l3.986-7.79a2.178 2.178 0 0 0-.05-2.078C23.338 35.38 22.693 35 21.978 35ZM32.978 26h-7.973c-.715 0-1.34.38-1.712 1.024a2.151 2.151 0 0 0-.05 2.079l3.987 7.789C27.582 37.578 28.256 38 29 38c.745 0 1.42-.422 1.772-1.108l3.987-7.79a2.178 2.178 0 0 0-.05-2.078C34.337 26.38 33.693 26 32.978 26ZM43.978 35h-7.973c-.715 0-1.339.38-1.711 1.024a2.151 2.151 0 0 0-.05 2.079l3.986 7.789c.353.686 1.027 1.108 1.772 1.108.745 0 1.42-.422 1.772-1.108l3.986-7.79a2.178 2.178 0 0 0-.05-2.078C45.338 35.38 44.693 35 43.978 35Z"/><defs><linearGradient id="a" x1="30.9" x2="8.558" y1="30.083" y2="11.527" gradientUnits="userSpaceOnUse"><stop stop-color="#474747"/><stop offset="1" stop-color="#757575"/></linearGradient></defs></svg>