<svg xmlns="http://www.w3.org/2000/svg" fill="none" viewBox="0 0 49 49">
  <path fill="#7CACF8" d="M16.549 2.21a.2.2 0 0 0-.278 0l-9.538 9.218c-5.344 5.166-5.343 13.54.001 18.706 5.345 5.165 14.01 5.165 19.354 0 5.344-5.166 5.344-13.54 0-18.705a13.117 13.117 0 0 0-.086-.082L16.55 2.21Z"/>
  <path fill="url(#a)" fill-rule="evenodd" d="M19.803 37.18c-.556.9-.876 1.96-.876 3.093 0 3.274 2.672 5.927 5.968 5.927a2.245 2.245 0 0 1 .086 0h12.714v-.007c5.048-.191 9.082-4.316 9.082-9.377 0-5.182-4.23-9.384-9.45-9.384-2.636 0-7.622 1.545-9.312 7.789 0 0-1.133-.575-1.767-.721a17.334 17.334 0 0 1-6.445 2.68Z" clip-rule="evenodd"/>
  <defs>
    <linearGradient id="a" x1="41.979" x2="27.025" y1="51.258" y2="37.847" gradientUnits="userSpaceOnUse">
      <stop offset=".249" stop-color="#757575"/>
      <stop offset="1" stop-color="#ABABAB"/>
    </linearGradient>
  </defs>
</svg>