<svg xmlns="http://www.w3.org/2000/svg" width="48" height="48" fill="none"><path fill="url(#a)" fill-rule="evenodd" d="M47 16.5c0 8.358-6.662 15.172-15 15.488V32H11v-.002h-.143C5.413 31.999 1 27.617 1 22.21c0-5.407 4.413-9.79 9.857-9.79 1.89 0 3.654.528 5.154 1.444C17.271 6.559 23.68 1 31.393 1 40.013 1 47 7.94 47 16.5Z" clip-rule="evenodd"/><path fill="#C7C7C7" d="m9.44 21.72 5.44 5.439-5.44 5.44L4 27.158zM23.04 35.316l5.44 5.44-5.44 5.44-5.44-5.44z"/><path fill="#ABABAB" d="m28.48 19 2.72 2.72-16.32 16.318-2.72-2.72zM35.28 25.799 38 28.518l-8.16 8.159-2.72-2.72z"/><defs><linearGradient id="a" x1="30.9" x2="8.558" y1="30.083" y2="11.527" gradientUnits="userSpaceOnUse"><stop stop-color="#474747"/><stop offset="1" stop-color="#757575"/></linearGradient></defs></svg>