<svg xmlns="http://www.w3.org/2000/svg" fill="none" viewBox="0 0 49 49">
  <g fill-rule="evenodd" clip-path="url(#a)" clip-rule="evenodd">
    <path fill="url(#b)" d="M23.233 37.106a.026.026 0 0 0-.013.042 4.64 4.64 0 0 1 1.133 2.737A4.64 4.64 0 0 0 28.67 44.2a4.64 4.64 0 0 1 2.736 1.134 4.64 4.64 0 0 0 6.103 0 4.64 4.64 0 0 1 2.737-1.134 4.64 4.64 0 0 0 4.315-4.315 4.64 4.64 0 0 1 1.134-2.737 4.64 4.64 0 0 0 0-6.103 4.64 4.64 0 0 1-1.134-2.736 4.64 4.64 0 0 0-4.315-4.316 4.64 4.64 0 0 1-2.737-1.133c-.103-.09-.262-.035-.297.098a20.038 20.038 0 0 1-13.978 14.148Z"/>
    <path fill="#ABABAB" d="m24.88 23.78 1.495 5.58 3.188-.854-1.245-4.646 4.647-1.245-.854-3.188-5.581 1.496-2.637-1.522a6.255 6.255 0 0 0 .003-3.14l2.634-1.52 5.58 1.495.855-3.187-4.648-1.245 1.245-4.647-3.188-.854-1.495 5.58-2.625 1.516a6.239 6.239 0 0 0-2.73-1.591V8.793l4.086-4.085-2.333-2.334-3.403 3.403-3.403-3.403-2.333 2.334 4.086 4.085v3.001a6.237 6.237 0 0 0-2.761 1.586l-2.595-1.497-1.495-5.58-3.188.854 1.245 4.647-4.647 1.245.855 3.188 5.581-1.496 2.59 1.495a6.255 6.255 0 0 0 .003 3.19l-2.594 1.497-5.58-1.495-.854 3.187L7.43 23.86l-1.245 4.647 3.188.854 1.495-5.58 2.604-1.503a6.237 6.237 0 0 0 2.751 1.576v3.017l-4.086 4.085 2.333 2.334 3.403-3.402 3.403 3.402 2.333-2.334-4.086-4.085v-3.03a6.238 6.238 0 0 0 2.72-1.581l2.636 1.52Zm-7.03-8.9a2.944 2.944 0 1 0-.002 5.889 2.944 2.944 0 0 0 .001-5.888Z"/>
  </g>
  <defs>
    <radialGradient id="b" cx="0" cy="0" r="1" gradientTransform="rotate(63.817 -10.096 43.744) scale(12.8257 11.6448)" gradientUnits="userSpaceOnUse">
      <stop offset=".156" stop-color="#FFD535"/>
      <stop offset=".546" stop-color="#FFD323"/>
      <stop offset=".974" stop-color="#E2A93A"/>
    </radialGradient>
    <clipPath id="a">
      <path fill="#fff" d="M.777.425h48v48h-48z"/>
    </clipPath>
  </defs>
</svg>