<svg xmlns="http://www.w3.org/2000/svg" width="48" height="48" fill="none"><path fill="url(#a)" fill-rule="evenodd" d="M30.667 21 24 34.757h6L29.257 47 44 30.962l-5.335-.02L44 21H30.667Z" clip-rule="evenodd"/><path fill="url(#b)" fill-rule="evenodd" d="M18.667 37 16 42.82h2.4L18.103 48 24 41.215l-2.134-.01L24 37h-5.333Z" clip-rule="evenodd"/><path fill="url(#c)" fill-rule="evenodd" d="M27.304 20.22 22.084 32H18.77a.835.835 0 0 1-.297-1.105l1.044-1.952c.712-1.332-.253-2.943-1.764-2.943h-3.586c-.179 0-.354.024-.52.069a1.985 1.985 0 0 0-.523-.069h-3.039a2 2 0 0 0-1.806 1.14l-1.82 3.83C3.222 29.366 1 26.049 1 22.21c0-5.413 4.41-9.792 9.854-9.792a9.82 9.82 0 0 1 5.151 1.447C17.271 6.555 23.675 1 31.394 1 40.009 1 47 7.936 47 16.5c0 .44-.026.865-.064 1.292H30.857c-1.56 0-2.965.955-3.553 2.428Z" clip-rule="evenodd"/><path fill="url(#d)" fill-rule="evenodd" d="m10 28-4 7.937h3.6L9.154 43 18 33.748l-3.201-.013L18 28h-8Z" clip-rule="evenodd"/><defs><linearGradient id="a" x1="26.381" x2="56.109" y1="18.679" y2="47.852" gradientUnits="userSpaceOnUse"><stop stop-color="#FFE684"/><stop offset=".521" stop-color="#FFCD04"/></linearGradient><linearGradient id="b" x1="16.952" x2="29.497" y1="36.018" y2="47.657" gradientUnits="userSpaceOnUse"><stop stop-color="#FFE684"/><stop offset=".521" stop-color="#FFCD04"/></linearGradient><linearGradient id="c" x1="31.2" x2="8.093" y1="30.021" y2="10.621" gradientUnits="userSpaceOnUse"><stop stop-color="#474747"/><stop offset="1" stop-color="#757575"/></linearGradient><linearGradient id="d" x1="7.429" x2="24.579" y1="26.661" y2="44.164" gradientUnits="userSpaceOnUse"><stop stop-color="#FFE684"/><stop offset=".521" stop-color="#FFCD04"/></linearGradient></defs></svg>