<svg xmlns="http://www.w3.org/2000/svg" width="48" height="48" fill="none"><path fill="url(#a)" d="M33.876 6.76a7.918 7.918 0 0 1 7.364 7.364 7.919 7.919 0 0 0 1.934 4.67 7.918 7.918 0 0 1 0 10.413 7.919 7.919 0 0 0-1.934 4.67 7.919 7.919 0 0 1-7.364 7.363 7.919 7.919 0 0 0-4.67 1.934 7.918 7.918 0 0 1-10.413 0 7.919 7.919 0 0 0-4.67-1.934 7.918 7.918 0 0 1-7.363-7.364 7.919 7.919 0 0 0-1.934-4.67 7.918 7.918 0 0 1 0-10.412 7.919 7.919 0 0 0 1.934-4.67 7.918 7.918 0 0 1 7.364-7.364 7.919 7.919 0 0 0 4.67-1.934 7.918 7.918 0 0 1 10.413 0 7.919 7.919 0 0 0 4.67 1.934Z"/><defs><radialGradient id="a" cx="0" cy="0" r="1" gradientTransform="matrix(13 21.50001 -22.8797 13.83424 20 19.5)" gradientUnits="userSpaceOnUse"><stop offset=".156" stop-color="#FFD535"/><stop offset=".546" stop-color="#FFD323"/><stop offset=".974" stop-color="#E2A93A"/></radialGradient></defs></svg>