<svg xmlns="http://www.w3.org/2000/svg" width="48" height="48" fill="none"><path fill="url(#a)" fill-rule="evenodd" d="m21.667 32 5.637-11.78a3.831 3.831 0 0 1 3.553-2.428h16.079c.038-.427.064-.853.064-1.292C47 7.936 40.009 1 31.394 1c-7.72 0-14.123 5.554-15.389 12.865a9.82 9.82 0 0 0-5.15-1.447C5.41 12.418 1 16.798 1 22.21c0 5.193 4.064 9.43 9.203 9.765V32h11.464Z" clip-rule="evenodd"/><path fill="url(#b)" fill-rule="evenodd" d="M30.667 21 24 34.754h6L29.253 47 44 30.958l-5.333-.026L44 21H30.667Z" clip-rule="evenodd"/><path fill="#7CACF8" d="m16 33-4.24 4.107a5.656 5.656 0 0 0 0 8.2c2.347 2.266 6.147 2.266 8.48 0a5.656 5.656 0 0 0 0-8.2l-.04-.04L16 33ZM7 22l-4.24 4.107a5.656 5.656 0 0 0 0 8.2c2.347 2.266 6.147 2.266 8.48 0a5.656 5.656 0 0 0 0-8.2l-.04-.04L7 22Z"/><defs><linearGradient id="a" x1="30.9" x2="8.558" y1="30.083" y2="11.527" gradientUnits="userSpaceOnUse"><stop stop-color="#474747"/><stop offset="1" stop-color="#757575"/></linearGradient><linearGradient id="b" x1="26.381" x2="56.109" y1="18.679" y2="47.852" gradientUnits="userSpaceOnUse"><stop stop-color="#FFE684"/><stop offset=".521" stop-color="#FFCD04"/></linearGradient></defs></svg>