<svg xmlns="http://www.w3.org/2000/svg" width="48" height="48" fill="none"><mask id="a" width="38" height="32" x="5" y="8" maskUnits="userSpaceOnUse" style="mask-type:luminance"><path fill="#fff" fill-rule="evenodd" d="M32 14c0-3.31-2.69-6-6-6h-2v4h2c1.1 0 2 .9 2 2s-.9 2-2 2H5v4h21c3.31 0 6-2.69 6-6Zm5 8H5v4h32c1.1 0 2 .9 2 2s-.9 2-2 2h-2v4h2c3.31 0 6-2.69 6-6s-2.69-6-6-6Zm-19 6H5v4h13c1.1 0 2 .9 2 2s-.9 2-2 2h-2v4h2c3.31 0 6-2.69 6-6s-2.69-6-6-6Z" clip-rule="evenodd"/></mask><g mask="url(#a)"><path fill="#ABABAB" fill-rule="evenodd" d="M32 14c0-3.31-2.69-6-6-6h-2v4h2c1.1 0 2 .9 2 2s-.9 2-2 2H5v4h21c3.31 0 6-2.69 6-6ZM18 28H5v4h13c1.1 0 2 .9 2 2s-.9 2-2 2h-2v4h2c3.31 0 6-2.69 6-6s-2.69-6-6-6ZM5 22h32c3.31 0 6 2.69 6 6s-2.69 6-6 6h-2v-4h2c1.1 0 2-.9 2-2s-.9-2-2-2H5v-4Z" clip-rule="evenodd"/></g></svg>