<svg width="48" height="48" viewBox="0 0 48 48" fill="none" xmlns="http://www.w3.org/2000/svg"><path d="M21.08 1.508c11.94.302 21.523 10.088 21.523 22.112a1 1 0 0 1-1.997 0c0-11.113-8.998-20.12-20.096-20.12a1 1 0 0 1 0-2l.57.008zM5.54 24.38c0 12.215 9.892 22.119 22.093 22.12a1 1 0 0 0 0-1.999c-11.098 0-20.096-9.008-20.096-20.121a1 1 0 0 0-.896-.994l-.102-.006-.103.006a1 1 0 0 0-.896.994z" fill="#70757A" stroke="#70757A" stroke-width=".999"/><mask id="a" fill="#fff"><path fill-rule="evenodd" clip-rule="evenodd" d="M24 8.944c9.546 0 15.965 7.334 18.978 11.778a5.817 5.817 0 0 1-.024 6.624C39.93 31.73 33.52 38.916 24 38.916c-9.52 0-15.93-7.187-18.954-11.57a5.816 5.816 0 0 1-.024-6.624C8.036 16.278 14.454 8.944 24 8.944zm0 2.997c-6.612 0-11.974 5.368-11.974 11.99 0 6.62 5.362 11.988 11.975 11.988 6.613 0 11.973-5.368 11.973-11.989 0-6.62-5.36-11.989-11.973-11.989z"/></mask><path fill-rule="evenodd" clip-rule="evenodd" d="M24 8.944c9.546 0 15.965 7.334 18.978 11.778a5.817 5.817 0 0 1-.024 6.624C39.93 31.73 33.52 38.916 24 38.916c-9.52 0-15.93-7.187-18.954-11.57a5.816 5.816 0 0 1-.024-6.624C8.036 16.278 14.454 8.944 24 8.944zm0 2.997c-6.612 0-11.974 5.368-11.974 11.99 0 6.62 5.362 11.988 11.975 11.988 6.613 0 11.973-5.368 11.973-11.989 0-6.62-5.36-11.989-11.973-11.989z" fill="#70757A"/><path fill-rule="evenodd" clip-rule="evenodd" d="M24 8.944v-1 1zm18.978 11.778l.827-.56-.827.56zm-.024 6.624l.822.568-.822-.568zM24 38.916v.999-1zM5.046 27.346l-.823.568.823-.568zm-.024-6.624l-.827-.56.827.56zm18.979-8.781v-1 1zm-11.975 11.99h-.999 1zm11.975 11.988v.999-1zM35.974 23.93h1-1zM24 8.944v.999c9.013 0 15.171 6.944 18.151 11.34l.827-.56.827-.561C40.758 15.668 34.078 7.945 24 7.945v.999zm18.978 11.778l-.827.56a4.818 4.818 0 0 1-.02 5.497l.823.567.822.568a6.816 6.816 0 0 0 .03-7.752l-.828.56zm-.024 6.624l-.822-.567C39.145 31.109 32.996 37.916 24 37.916v1.999c10.045 0 16.716-7.565 19.776-12.001l-.822-.568zM24 38.916v-1c-8.996 0-15.145-6.808-18.132-11.137l-.822.567-.823.568c3.06 4.436 9.732 12 19.777 12v-.998zM5.046 27.346l.822-.567a4.817 4.817 0 0 1-.019-5.496l-.827-.56-.827-.561a6.815 6.815 0 0 0 .028 7.752l.823-.568zm-.024-6.624l.827.56C8.83 16.888 14.987 9.944 24 9.944V7.945c-10.078 0-16.757 7.723-19.804 12.217l.827.56zm18.979-8.781v-1c-7.166 0-12.974 5.817-12.974 12.99h1.998c0-6.071 4.915-10.99 10.976-10.99v-1zm-11.975 11.99h-.999c0 7.171 5.808 12.987 12.974 12.987V34.92c-6.06 0-10.976-4.92-10.976-10.99h-.999zm11.975 11.988v.999c7.166 0 12.972-5.816 12.973-12.988h-1.999c0 6.07-4.914 10.99-10.974 10.99v.998zM35.974 23.93h1c0-7.171-5.807-12.988-12.973-12.988v1.999c6.06 0 10.974 4.919 10.974 10.99h1z" fill="#70757A" mask="url(#a)"/><path d="M24.001 16.187c4.272 0 7.734 3.467 7.734 7.743 0 4.275-3.462 7.743-7.734 7.743s-7.734-3.468-7.734-7.743c0-4.276 3.462-7.743 7.734-7.743zm0 1.999a5.74 5.74 0 0 0-5.737 5.744A5.742 5.742 0 0 0 24 29.675a5.741 5.741 0 0 0 5.737-5.745A5.74 5.74 0 0 0 24 18.186z" fill="#70757A" stroke="#70757A" stroke-width=".999"/></svg>