<svg width="48" height="48" viewBox="0 0 48 48" fill="none" xmlns="http://www.w3.org/2000/svg"><path d="M25.762 2c-3.077 3.766-4.918 8.544-4.918 13.743a21.57 21.57 0 0 0 3.338 11.546c-.241.307-.47.624-.684.951C17.862 28.292 13 32.75 13 38.618v.04l.012.463.002.04c.052 1.005.25 1.965.567 2.863-5.793-3.98-9.58-10.57-9.581-18.029C4 12.071 13.68 2.361 25.762 2z" fill="#3271EA"/><path d="M35.404 26.502v.001c5.042.124 9.096 4.1 9.096 8.996l-.005.283c-.092 2.895-1.605 5.446-3.886 7.027a9.464 9.464 0 0 1-3.311 1.45c-2.235.276-4.45.24-6.862.24h-6.838c-3.252 0-5.918-2.461-6.09-5.557l-.008-.324c0-3.25 2.733-5.88 6.098-5.88.44 0 .87.046 1.283.131l1.191.247.488-1.114c1.414-3.233 4.738-5.499 8.597-5.502l.247.002z" stroke="#70757A" stroke-width="3"/></svg>