<svg width="49" height="49" viewBox="0 0 49 49" fill="none" xmlns="http://www.w3.org/2000/svg"><path d="M46.066 17.471c-.159 4.862-2.77 9.115-6.645 11.732a16.304 16.304 0 0 1-5.738 2.427c-3.481.427-6.925.367-10.435.367H13.217c-5.876 0-10.825-4.35-11.128-9.992l-.015-.55c0-5.906 5.077-10.542 11.143-10.543.797 0 1.576.08 2.329.232C17.976 5.735 23.65 2 30.182 2l.406.005c8.506.203 15.486 6.757 15.486 14.994l-.008.473z" fill="url(#a)" fill-opacity=".35"/><path d="M30.598 2.005c8.338.199 15.208 6.501 15.476 14.509L42.948 15.3c-.866-5.647-5.979-10.133-12.4-10.296L30.178 5c-5.387.006-9.96 3.086-11.885 7.373l-.982 2.186-2.348-.474a8.726 8.726 0 0 0-1.291-.161l-.444-.012c-4.592 0-8.13 3.466-8.143 7.522l.012.424c.027.491.107.972.234 1.438h-.077l-1.887 3.076a10.033 10.033 0 0 1-1.225-3.843l-.042-.524-.015-.55c0-5.906 5.077-10.543 11.143-10.543.797 0 1.576.08 2.329.232C17.985 5.735 23.66 2 30.19 2l.407.005z" fill="#70757A"/><path d="M23.42 39.715l3.045-1.622.246-.132.896 1.432-3.274 1.743 3.274 1.747-.896 1.431-3.291-1.754v3.517h-1.753V42.56l-3.044 1.623-.248.132-.895-1.432 3.273-1.747-3.273-1.743.895-1.432 3.292 1.754V36.2h1.753v3.515zM37.337 36.932l3.045-1.622.246-.132.896 1.431-3.274 1.743 3.274 1.748-.896 1.431-3.291-1.755v3.517h-1.752v-3.518l-3.292 1.756-.15-.237-.745-1.194 3.273-1.748-3.273-1.743.894-1.431.248.132 3.045 1.623v-3.516h1.752v3.515zM11.477 30.255l3.988-2.126.84 1.344.172.272-.284.151-3.686 1.965 3.97 2.117-.171.273-.841 1.344-3.988-2.127v4.26H9.493v-4.26l-3.741 1.995-.248.132-1.01-1.617 3.969-2.117-3.686-1.965-.283-.15 1.01-1.617.248.132 3.741 1.994v-4.26h1.984v4.26zM26.318 26.544l3.989-2.126.84 1.344.171.272-3.971 2.114 3.971 2.12-1.011 1.615-3.989-2.127v4.26h-1.983v-4.26l-3.988 2.127-.84-1.343-.171-.272 3.969-2.118-3.686-1.964-.283-.152 1.01-1.616.248.132 3.741 1.994v-4.26h1.983v4.26zM41.162 22.834l3.988-2.126.841 1.344.171.272-3.972 2.114 3.972 2.12-1.012 1.615-3.988-2.127v4.26H39.18v-4.26l-3.989 2.127-.84-1.343-.17-.272 3.968-2.118-3.685-1.964-.283-.152 1.01-1.616.248.132 3.74 1.994v-4.26h1.984v4.26z" fill="#303134"/><defs><linearGradient id="a" x1="20.653" y1="6.224" x2="28.985" y2="30.799" gradientUnits="userSpaceOnUse"><stop offset=".072" stop-color="#70757A"/><stop offset=".625" stop-color="#ABABAB" stop-opacity="0"/></linearGradient></defs></svg>