<svg width="48" height="48" viewBox="0 0 48 48" fill="none" xmlns="http://www.w3.org/2000/svg"><path d="M25.762 2c-3.077 3.766-4.918 8.544-4.918 13.743 0 1.743.207 3.44.598 5.066a16.221 16.221 0 0 0-3.487 3.918l-.332-.003c-5.254 0-10.014 3.175-11.837 7.885A21.554 21.554 0 0 1 4 23.995C4 12.071 13.68 2.361 25.762 2z" fill="url(#a)"/><path d="M32.59 21.503c6.62.16 11.91 5.258 11.91 11.496l-.007.378c-.126 3.684-2.098 6.937-5.08 8.957a12.552 12.552 0 0 1-4.373 1.864c-2.867.347-5.707.3-8.754.3h-8.663c-4.22-.001-7.676-3.027-8.083-6.867l-.03-.374-.01-.397c0-4.202 3.623-7.636 8.123-7.636.588 0 1.162.059 1.714.17l1.177.239.49-1.096c1.848-4.128 6.198-7.034 11.264-7.037l.322.003z" fill="url(#b)" fill-opacity=".35" stroke="#70757A" stroke-width="3"/><defs><linearGradient id="a" x1="7.33" y1="7.922" x2="18.568" y2="19.332" gradientUnits="userSpaceOnUse"><stop stop-color="#3271EA"/><stop offset="1" stop-color="#0B57D0"/></linearGradient><linearGradient id="b" x1="24.045" y1="23.661" x2="31.286" y2="44.943" gradientUnits="userSpaceOnUse"><stop offset=".375" stop-color="#ABABAB" stop-opacity="0"/><stop offset=".928" stop-color="#70757A"/></linearGradient></defs></svg>