<svg width="49" height="49" viewBox="0 0 49 49" fill="none" xmlns="http://www.w3.org/2000/svg"><path d="M46.246 17.616c-.16 4.862-2.77 9.114-6.645 11.731a16.304 16.304 0 0 1-5.739 2.427c-3.48.428-6.924.368-10.434.368H13.396c-5.876 0-10.824-4.351-11.127-9.993l-.015-.55c0-5.906 5.077-10.542 11.143-10.542.797 0 1.576.08 2.329.231C18.155 5.88 23.83 2.145 30.36 2.145l.407.004c8.506.203 15.486 6.758 15.486 14.994l-.008.473z" fill="url(#a)" fill-opacity=".35"/><path d="M30.514 2.005C39.02 2.208 46 8.762 46 16.999l-.008.473-.022.454a14.228 14.228 0 0 1-1.326 5.139 8.907 8.907 0 0 0-.979-1.122l-.056-.053-1.236-1.195c.364-1.043.578-2.147.62-3.288l.006-.436c-.016-6.409-5.492-11.788-12.534-11.967L30.093 5c-5.387.006-9.96 3.086-11.885 7.373l-.981 2.186-2.35-.474a8.724 8.724 0 0 0-1.29-.161l-.444-.012c-4.592 0-8.13 3.466-8.143 7.522l.012.424c.187 3.34 2.783 6.216 6.337 6.953L9.69 31.476c-4.083-1.262-7.182-4.698-7.633-8.947l-.042-.524-.015-.55c0-5.906 5.077-10.543 11.143-10.543.797 0 1.576.08 2.329.232C17.9 5.735 23.577 2 30.107 2l.407.005z" fill="#70757A"/><path d="M20.482 36.158l5.915-3.151.074.119.994 1.59.086.136-.143.076-5.763 3.071 5.763 3.073.142.076-1.08 1.726-.073.12-.124-.066-5.79-3.088v6.31h-2.29v-6.31l-5.79 3.088-.124.065-.074-.119-1.079-1.726.142-.076L17.029 38l-5.904-3.147.086-.136.994-1.59.074-.12 5.914 3.152V29.85h2.29v6.308zM37.338 36l5.657 5.656-5.657 5.657-5.657-5.657z" fill="#303134"/><path d="M37.337 20l-4.242 4.1a5.663 5.663 0 0 0 0 8.201c2.343 2.265 6.142 2.265 8.486 0a5.663 5.663 0 0 0-.038-8.236L37.337 20z" fill="url(#b)"/><defs><linearGradient id="a" x1="20.832" y1="6.368" x2="29.165" y2="30.943" gradientUnits="userSpaceOnUse"><stop offset=".072" stop-color="#70757A"/><stop offset=".625" stop-color="#ABABAB" stop-opacity="0"/></linearGradient><linearGradient id="b" x1="33.174" y1="22.709" x2="38.212" y2="28.875" gradientUnits="userSpaceOnUse"><stop stop-color="#3271EA"/><stop offset="1" stop-color="#0B57D0"/></linearGradient></defs></svg>