<svg xmlns="http://www.w3.org/2000/svg" width="32" height="32"><defs><linearGradient id="a" x1="0%" x2="98.277%" y1="0%" y2="98.277%"><stop offset="0%" stop-color="#F1F3F4"/><stop offset="100%" stop-color="#DADCE0"/></linearGradient></defs><g fill="none" fill-rule="evenodd"><g stroke="#CDD0D5" stroke-linecap="round" stroke-linejoin="round"><path d="M26.751 31a3 3 0 1 0 0-6H12M1 20h14"/><path d="M11.751 31a3 3 0 1 0 0-6H1"/></g><ellipse cx="13.125" cy="8" fill="#F1F3F4" rx="7.875" ry="8"/><circle cx="13" cy="8" r="8" fill="url(#a)"/><path fill="#F1F3F4" d="M13 16c0-3.682-2.91-6.667-6.5-6.667S0 12.318 0 16c.01-.015 13.003-.01 13 0Z"/><path stroke="#4285F4" stroke-linecap="square" d="M28 9.429v5.142m-2.227-3.857 4.454 2.572m0-2.572-4.454 2.572M28 17.429v5.142m-2.227-3.857 4.454 2.572m0-2.572-4.454 2.572M20 17.429v5.142m-2.227-3.857 4.454 2.572m0-2.572-4.454 2.572"/></g></svg>