<svg xmlns="http://www.w3.org/2000/svg" xml:space="preserve" id="Layer_1" x="0" y="0" style="enable-background:new 0 0 32 32" version="1.1" viewBox="0 0 32 32"><style>.st3{fill:#cdcfd4}.st19{fill:#fbbc04}</style><circle cx="18.502" cy="5.5" r="1" class="st19"/><circle cx="2.003" cy="15.499" r="1" class="st19"/><circle cx="13.499" cy="15.503" r="1" class="st19"/><circle cx="30.002" cy="10.497" r="1" class="st19"/><path d="M14.501 6H1.49a.5.5 0 0 1 0-1h13.011a.5.5 0 0 1 0 1zm16 0h-7.999a.5.5 0 0 1 0-1h7.999a.5.5 0 0 1 0 1z" class="st3"/><circle cx="23.501" cy="20.485" r="1" class="st19"/><path d="M30.5 20.999h-2.999a.5.5 0 0 1 0-1H30.5a.5.5 0 0 1 0 1zm-10.996-.003H1.486a.5.5 0 0 1 0-1h18.018a.5.5 0 0 1 0 1z" class="st3"/><circle cx="8.501" cy="25.488" r="1" class="st19"/><path d="M4.5 26.001H1.503a.5.5 0 0 1 0-1H4.5a.5.5 0 0 1 0 1zm25.997-.002H12.502a.5.5 0 0 1 0-1h17.995a.5.5 0 0 1 0 1zm.005-9.997H17.504a.5.5 0 0 1 0-1h12.998a.5.5 0 0 1 0 1zm-4.501-5.005H1.49a.5.5 0 0 1 0-1h24.511a.5.5 0 0 1 0 1zM9.504 15.999H6.007a.5.5 0 0 1 0-1h3.497a.5.5 0 0 1 0 1z" class="st3"/></svg>