<svg xmlns="http://www.w3.org/2000/svg" width="32" height="32"><defs><linearGradient id="a" x1="0%" x2="98.277%" y1="0%" y2="98.277%"><stop offset="0%" stop-color="#F1F3F4"/><stop offset="100%" stop-color="#DADCE0"/></linearGradient><linearGradient id="b" x1="100%" x2="50%" y1="100%" y2="100%"><stop offset="0%" stop-color="#FFF"/><stop offset="100%" stop-color="#F1F3F4"/></linearGradient></defs><g fill="none" fill-rule="evenodd"><circle cx="20" cy="12" r="12" fill="#F1F3F4"/><circle cx="20" cy="12" r="12" fill="url(#a)"/><path fill="url(#b)" d="M20 24c0-5.523-4.477-10-10-10S0 18.477 0 24c.015-.023 20.005-.015 20 0Z"/><path fill="#4285F4" d="M18.343 18.343 24 12.686l5.657 5.657a8 8 0 1 1-11.314 0Z"/><path fill="#3879E5" d="M18.343 18.343 24 12.686l5.657 5.657c.109.11.214.22.315.334a11.988 11.988 0 0 1-10.247 5.32c-.562-.003-1.942-.006-3.725-.008a7.975 7.975 0 0 1 2.343-5.646Z"/></g></svg>