<svg xmlns="http://www.w3.org/2000/svg" xml:space="preserve" id="Layer_1" x="0" y="0" style="enable-background:new 0 0 32 32" version="1.1" viewBox="0 0 32 32"><style>.st0{fill:url(#Oval_5_)}.st0,.st1,.st2{fill-rule:evenodd;clip-rule:evenodd}.st1{fill:url(#Oval_8_)}.st2{fill:#5285eb}.st3{fill:#cdcfd4}.st10{fill-rule:evenodd;clip-rule:evenodd}.st4{fill:#f0f2f3}.st4,.st5,.st6,.st7,.st8,.st9{fill-rule:evenodd;clip-rule:evenodd}.st5{fill:url(#Oval_9_)}.st6{fill:url(#Oval_10_)}.st7{fill:#f1f3f4}.st8{fill:url(#Oval_11_)}.st9{fill:url(#Oval_12_)}.st10{fill:#fbbc04}.st12{fill:#ee675c}.st13{fill:#fa903e}.st14{fill:#f9cd41}.st15{fill:#5bb974}.st16,.st17{fill-rule:evenodd;clip-rule:evenodd;fill:url(#Oval_13_)}.st17{fill:url(#Oval_14_)}.st18{fill:#5283e9}.st19{fill:#fbbc04}.st20{fill:none;stroke:#5285eb;stroke-linecap:round;stroke-miterlimit:10}.st21{fill:#f1bc42}.st22{fill-rule:evenodd;clip-rule:evenodd;fill:url(#SVGID_2_)}.st23{fill:url(#SVGID_3_)}</style><linearGradient id="SVGID_1_" x1="3.312" x2="9.115" y1="11.434" y2="13.186" gradientUnits="userSpaceOnUse"><stop offset="0" style="stop-color:#f1f3f4"/><stop offset="1" style="stop-color:#dedfdf"/></linearGradient><circle cx="8.625" cy="13.038" r="7.004" style="fill-rule:evenodd;clip-rule:evenodd;fill:url(#SVGID_1_)"/><linearGradient id="SVGID_2_" x1="11.742" x2="19.702" y1="6.277" y2="15.921" gradientUnits="userSpaceOnUse"><stop offset="0" style="stop-color:#f1f3f4;stop-opacity:.8"/><stop offset=".005" style="stop-color:#f1f3f4;stop-opacity:.8011"/><stop offset=".558" style="stop-color:#e3e4e4;stop-opacity:.9116"/><stop offset="1" style="stop-color:#dedfdf"/></linearGradient><path d="M30.379 11.151c0-5.817-4.715-10.532-10.532-10.532S9.315 5.334 9.315 11.151c0 2 .589 3.851 1.557 5.444-1.37 1.233-2.248 3.002-2.248 4.991 0 3.591 2.818 6.499 6.359 6.7 2.099.175 2.951 1.422 3.021 3.07.088.007.173.026.263.026a3.305 3.305 0 0 0 2.351-5.625c.914-1.15 1.484-2.587 1.484-4.17 0-.052-.014-.1-.016-.152 4.739-1.029 8.293-5.236 8.293-10.284z" style="fill:url(#SVGID_2_)"/></svg>