<svg width="48" height="48" viewBox="0 0 48 48" fill="none" xmlns="http://www.w3.org/2000/svg"><path d="M18.58 4.033a8.246 8.246 0 0 1 10.844 0 8.247 8.247 0 0 0 4.863 2.014 8.246 8.246 0 0 1 7.667 7.668 8.246 8.246 0 0 0 2.015 4.862 8.246 8.246 0 0 1 1.61 8.031 14.019 14.019 0 0 0-10.064-4.604h-.038L35.2 22h-.036c-4.844 0-9.184 2.448-11.666 6.24C17.862 28.292 13 32.75 13 38.618v.04l.012.463.002.04c.05.973.239 1.902.538 2.776a8.243 8.243 0 0 1-7.502-7.653 8.246 8.246 0 0 0-2.015-4.862 8.247 8.247 0 0 1 0-10.845 8.246 8.246 0 0 0 2.015-4.862 8.246 8.246 0 0 1 7.667-7.668 8.247 8.247 0 0 0 4.863-2.014z" fill="url(#a)"/><path d="M35.404 26.502c5.042.124 9.096 4.1 9.096 8.997l-.005.283c-.092 2.895-1.605 5.446-3.886 7.027a9.464 9.464 0 0 1-3.311 1.45c-2.235.276-4.45.24-6.862.239h-6.838c-3.252 0-5.918-2.46-6.09-5.557l-.008-.323c0-3.25 2.733-5.88 6.098-5.88.44 0 .87.045 1.283.131l1.191.247.488-1.114c1.414-3.234 4.738-5.5 8.597-5.502l.247.002z" fill="url(#b)" fill-opacity=".35" stroke="#BDC1C6" stroke-width="3"/><defs><radialGradient id="a" cx="0" cy="0" r="1" gradientTransform="matrix(23.3684 26.8087 -21.2636 18.5465 12.017 12.922)" gradientUnits="userSpaceOnUse"><stop offset=".284" stop-color="#FCC934"/><stop offset=".99" stop-color="#E47100"/></radialGradient><linearGradient id="b" x1="28.667" y1="27.957" x2="34.622" y2="45.064" gradientUnits="userSpaceOnUse"><stop offset=".375" stop-color="#ABABAB" stop-opacity="0"/><stop offset=".928" stop-color="#BDC1C6"/></linearGradient></defs></svg>