<svg width="48" height="48" viewBox="0 0 48 48" fill="none" xmlns="http://www.w3.org/2000/svg"><path d="M45.992 17.471c-.16 4.862-2.77 9.115-6.645 11.732a16.305 16.305 0 0 1-5.739 2.427c-3.48.427-6.924.367-10.434.367H13.143c-5.876 0-10.825-4.35-11.128-9.992L2 21.455c0-5.906 5.077-10.542 11.143-10.543.797 0 1.576.08 2.329.232C17.9 5.735 23.577 2 30.107 2l.407.005C39.02 2.208 46 8.762 46 16.999l-.008.473z" fill="url(#a)" fill-opacity=".35"/><path d="M30.514 2.005c8.159.194 14.912 6.233 15.45 13.995h-3.01c-.535-5.972-5.805-10.826-12.49-10.996L30.094 5c-5.387.006-9.96 3.086-11.885 7.373l-.981 2.186-2.35-.474a8.724 8.724 0 0 0-1.29-.161l-.444-.012c-4.592 0-8.13 3.466-8.143 7.522l.012.424c.12 2.154 1.243 4.114 2.977 5.434L6.624 30c-2.5-1.707-4.238-4.372-4.567-7.47l-.042-.525-.015-.55c0-5.906 5.077-10.543 11.143-10.543.797 0 1.576.08 2.329.232C17.9 5.735 23.577 2 30.107 2l.407.005z" fill="#BDC1C6"/><path fill-rule="evenodd" clip-rule="evenodd" d="M32.667 19L26 32.757h6L31.257 45 46 28.962l-5.335-.02L46 19H32.667zM20.667 35L18 40.82h2.4L20.103 46 26 39.215l-2.134-.01L26 35h-5.333zM12 26l-4 7.937h3.6L11.154 41 20 31.748l-3.201-.013L20 26h-8z" fill="#FCBD00"/><defs><linearGradient id="a" x1="20.578" y1="6.224" x2="28.911" y2="30.799" gradientUnits="userSpaceOnUse"><stop offset=".072" stop-color="#BDC1C6"/><stop offset=".625" stop-color="#ABABAB" stop-opacity="0"/></linearGradient></defs></svg>