<svg width="48" height="48" viewBox="0 0 48 48" fill="none" xmlns="http://www.w3.org/2000/svg"><path d="M34.287 6.047a8.246 8.246 0 0 1 7.668 7.668 8.246 8.246 0 0 0 2.014 4.863 8.246 8.246 0 0 1 0 10.843 8.246 8.246 0 0 0-2.014 4.863 8.246 8.246 0 0 1-7.668 7.668 8.245 8.245 0 0 0-4.863 2.014 8.246 8.246 0 0 1-10.844 0 8.245 8.245 0 0 0-4.863-2.014 8.246 8.246 0 0 1-7.668-7.668 8.246 8.246 0 0 0-2.014-4.863 8.246 8.246 0 0 1 0-10.843 8.246 8.246 0 0 0 2.014-4.863 8.246 8.246 0 0 1 7.668-7.668 8.245 8.245 0 0 0 4.863-2.014 8.246 8.246 0 0 1 10.844 0 8.245 8.245 0 0 0 4.863 2.014z" fill="url(#a)"/><defs><radialGradient id="a" cx="0" cy="0" r="1" gradientTransform="matrix(23.3689 29.5364 -21.264 20.4335 12.017 14.033)" gradientUnits="userSpaceOnUse"><stop offset=".284" stop-color="#FCC934"/><stop offset=".99" stop-color="#E47100"/></radialGradient></defs></svg>