<svg width="48" height="48" viewBox="0 0 48 48" fill="none" xmlns="http://www.w3.org/2000/svg"><mask id="a" style="mask-type:luminance" maskUnits="userSpaceOnUse" x="5" y="6" width="38" height="36"><path fill-rule="evenodd" clip-rule="evenodd" d="M19.51 42H25c0-1.47.43-2.84 1.16-4H17.5c0 1.64.79 3.09 2.01 4zM42.5 6h-37v4h33l4-4zm-23 28h13l4-4h-17v4zm-2.1-8h21.1c.87-1.16 1.5-2.52 1.8-4H13.4l4 4zM7.17 14c.62 1.43 1.41 2.77 2.33 4h30.8c-.3-1.48-.93-2.84-1.8-4H7.17z" fill="#fff"/></mask><g mask="url(#a)"><path fill-rule="evenodd" clip-rule="evenodd" d="M5.5 6h37l-4 4h-33V6zm14 28h13l4-4h-17v4zm.01 8H25c0-1.47.43-2.84 1.16-4H17.5c0 1.64.79 3.09 2.01 4zM7.17 14c.62 1.43 1.41 2.77 2.33 4h30.8c-.3-1.48-.93-2.84-1.8-4H7.17zM38.5 26H17.4l-4-4h26.9c-.3 1.48-.93 2.84-1.8 4z" fill="#BDC1C6"/></g></svg>